<?xml version="1.0" encoding="UTF-8" standalone="no"?>
<svg
   xmlns:dc="http://purl.org/dc/elements/1.1/"
   xmlns:cc="http://creativecommons.org/ns#"
   xmlns:rdf="http://www.w3.org/1999/02/22-rdf-syntax-ns#"
   xmlns:svg="http://www.w3.org/2000/svg"
   xmlns="http://www.w3.org/2000/svg"
   viewBox="0 0 8666.667 4876"
   height="4876"
   width="8666.667"
   xml:space="preserve"
   id="svg2"
   version="1.1"><metadata
     id="metadata8"><rdf:RDF><cc:Work
         rdf:about=""><dc:format>image/svg+xml</dc:format><dc:type
           rdf:resource="http://purl.org/dc/dcmitype/StillImage" /></cc:Work></rdf:RDF></metadata><defs
     id="defs6" /><g
     transform="matrix(1.3333333,0,0,-1.3333333,0,4876)"
     id="g10"><g
       transform="scale(0.1)"
       id="g12"><g
         transform="scale(3.98773)"
         id="g14"><path
           id="path16"
           style="fill:#1e9eb9;fill-opacity:1;fill-rule:evenodd;stroke:none"
           d="M 0,0 2.50475,9170.63 H 16298.4 L 16300,0 H 0" /></g><g
         transform="scale(3.62196)"
         id="g18"><path
           id="path20"
           style="fill:#0a6187;fill-opacity:1;fill-rule:evenodd;stroke:none"
           d="m 14431,519.435 c -1031.4,0 -1868.9,-32.439 -1868.9,-72.389 0,-39.954 837.5,-72.392 1868.9,-72.392 1031.6,0 1869,32.438 1869,72.392 0,39.95 -837.4,72.389 -1869,72.389" /></g><g
         transform="scale(3.20666)"
         id="g22"><path
           id="path24"
           style="fill:#d5f8ff;fill-opacity:1;fill-rule:evenodd;stroke:none"
           d="m 1859.29,7160.69 c 0,2108.6 3235.33,3820.51 7220.36,3820.51 3985.05,0 7220.35,-1711.91 7220.35,-3820.51 0,-1246.09 -1148.5,-2413.89 -3077.2,-3128.92 l 911.1,-2601.83 -3183.4,2040.72 c -610.2,-86.6 -1239.15,-130.47 -1870.85,-130.47 -3985.03,0 -7220.36,1711.91 -7220.36,3820.5" /></g><g
         transform="scale(2.90538)"
         id="g26"><path
           id="path28"
           style="fill:#ffffff;fill-opacity:1;fill-rule:evenodd;stroke:none"
           d="m 16195.3,4980.7 c -37,2.11 -173.1,57.1 -198.1,92.37 -26.6,37.59 -15.7,95.65 5.5,150.38 16.3,42.07 41.2,102.69 110.1,75.72 11,-4.32 36.3,-132.46 130.4,-100.38 27.4,9.31 -1.8,-43.52 -2.8,-92.12 -0.4,-19.02 29.2,-22.36 40,-38.66 19.6,-29.67 -47.9,-94.33 -47.9,-94.33 0,0 -17.9,5.91 -37.2,7.02" /></g><g
         transform="scale(3.19295)"
         id="g30"><path
           id="path32"
           style="fill:#ffffff;fill-opacity:1;fill-rule:evenodd;stroke:none"
           d="m 16055.7,4634.31 -4.2,43.24 c 0,0 187.8,134.97 227,181.4 20.4,24.1 21.5,67.73 8.1,97.21 -18.2,40.03 -77.3,110.26 -117.3,143.01 -35.1,28.74 -57.2,96.88 -88.7,112.32 -23,11.23 -88.1,-6.69 -88.1,-6.69 0.4,9.22 -48.6,-59.85 -100.2,-104.39 -39.7,-34.2 -66.8,-59.24 -84.3,-83.67 -8.7,-11.96 36.8,-18.44 27.3,-33.42 -31.1,-48.86 -85.3,-112.36 -72.3,-128.21 18.1,-22.17 95.6,-120.54 95.6,-120.54 l 5,-32.16 30.6,-152.75 c 69.9,-8.87 102.4,6 161.5,84.65" /></g><g
         transform="scale(3.20564)"
         id="g34"><path
           id="path36"
           style="fill:#001a51;fill-opacity:1;fill-rule:evenodd;stroke:none"
           d="m 15993.1,4647.63 c 37.9,-1.99 168.3,78.85 208.4,114.74 25.4,22.77 87.2,64.01 92.8,101.42 5.7,37.42 -39.9,88.04 -58.9,123.08 -35.5,65.51 17.4,179.2 -39,202.77 -32.3,13.51 -154.9,72.97 -197.1,95.82 -52.7,28.61 -76.4,71.82 -88.9,53.11 -12.5,-18.72 -18.3,-144.79 14,-165.37 34.1,-21.75 66.1,-37.14 95.9,-94.87 8.9,-17.3 12.1,-36.35 5.5,-52.29 -2,-4.94 -64.9,-105.37 -122.5,-155.64 -19.9,-17.39 -30.8,-12.02 -49.8,-17.5 -63.3,-18.19 -79.7,114.94 -79.7,114.94 l -92.1,-123.32 c 0,0 51.5,-132.72 102.6,-123.13 51.1,9.59 192,189.97 204.2,180.68 19,-14.44 96,-47.78 69.4,-93.13 -11.6,-19.88 -83.7,-34.6 -83.7,-34.6 0,0 -18.9,-124.71 18.9,-126.71" /></g><g
         transform="scale(3.27833)"
         id="g38"><path
           id="path40"
           style="fill:#ffffff;fill-opacity:1;fill-rule:evenodd;stroke:none"
           d="m 15451.5,4554.65 50.3,13.35 49.8,35.45 70,-48.95 678.4,-1301.25 -494.6,-236.84 -359.9,1194.74 6,343.5" /></g><g
         transform="scale(3.20516)"
         id="g42"><path
           id="path44"
           style="fill:#001a51;fill-opacity:1;fill-rule:evenodd;stroke:none"
           d="m 14903.9,4900.53 c 36.6,25.83 73.4,55.32 113.3,84.99 0,0 276,-209.23 298.9,-222.21 38.6,-21.96 490.5,-101.63 490.5,-101.63 62.1,-555.91 274.5,-948.11 455.6,-1374.49 l 37.8,-160.08 -326.4,-46.09 c 0,0 84.3,-6.25 23.3,426.01 -50.2,355.07 -343.8,866.25 -343.8,866.25 0,0 -283.3,142.83 -418.4,224.17 -51,30.72 -330.8,303.08 -330.8,303.08" /></g><g
         transform="scale(3.31598)"
         id="g46"><path
           id="path48"
           style="fill:#001a51;fill-opacity:1;fill-rule:evenodd;stroke:none"
           d="m 15651.6,4435.26 c 111,-69.52 181.3,-186.92 181.3,-186.92 40.3,-176.35 90.1,-528.48 140.2,-632.32 102.3,-212.38 326.9,-368.39 326.9,-368.39 l -232.4,-236 c 0,0 -244.8,209.31 -311.6,357.35 -37.4,82.86 -151.5,385.09 -215.5,564.14 -22.4,62.83 -681.7,-6.88 -797.8,43.78 -205.2,89.55 -567.4,388.61 -567.4,388.61 l 58.4,107.68 540.1,-297.05 c 0,0 667.5,162.21 657,211.23 -18.3,85.25 34,149.93 34,149.93 0,0 139.6,-72.5 186.8,-102.04" /></g><g
         transform="scale(3.39204)"
         id="g50"><path
           id="path52"
           style="fill:#f51e1e;fill-opacity:1;fill-rule:evenodd;stroke:none"
           d="m 15084.8,4387.55 -101.7,-78.81 -27.9,1.35 42.9,-15.35 c 0,0 925.1,-29.01 1142.7,-22.97 55.3,1.54 159.2,47.66 158.4,79.8 -0.9,32.13 -97.6,114.73 -163.3,113.01 C 15933.6,4459.33 15085.6,4320 15085.6,4320 l -24,38 23.2,29.55" /></g><g
         transform="scale(3.51901)"
         id="g54"><path
           id="path56"
           style="fill:#001a51;fill-opacity:1;fill-rule:evenodd;stroke:none"
           d="m 15382.8,1712.79 -262.5,1506.74 -165.9,66.23 -226.9,-292.76 -35.3,-121.55 c 0,0 -710.4,-652.33 -736.4,-747.8 -20.2,-73.97 -94.4,-1458.036 -94.4,-1458.036 l 17.9,0.352 -0.5,-38.701 -19.1,-0.807 c 0,0 -36.8,-51.899 -56.5,-62.956 -42.7,-23.936 -177.8,97.591 -180.4,-79.832 -0.7,-47.209 394.8,-8.84 394.8,-8.84 l -0.6,152.532 -18.5,1.162 0.1,29.914 18.1,0.412 176.7,1249.62 672.9,462.58 c 0,0 230.1,-779.9 256.6,-813.45 25.6,-32.59 934.8,-657.616 934.8,-657.616 l 19.9,30.565 16.4,-16.382 -19.1,-36.662 c 0,0 15.8,-125.97 -30.2,-161.602 -113.6,-87.911 -7.5,-169.86 9.1,-167.97 30.9,3.484 246.2,387.444 246.2,387.444 l -134.1,134.403 -21.7,-36.95 -12.8,11.15 21.8,38.02 -770.4,630.79" /></g></g></g></svg>