<svg version="1.1" id="Layer_1" xmlns="http://www.w3.org/2000/svg" xmlns:xlink="http://www.w3.org/1999/xlink" x="0px" y="0px"
	 width="100%" viewBox="0 0 5241 4769" enable-background="new 0 0 5241 4769" xml:space="preserve">
<path fill="#000000" opacity="1.000000" stroke="none" 
	d="
M2436.000000,4776.000000 
	C1624.000000,4776.000000 814.000000,4776.000000 4.000000,4776.000000 
	C4.000000,3185.333252 4.000000,1594.666626 4.000000,4.000001 
	C1752.000000,4.000000 3500.000000,4.000000 5248.000000,4.000000 
	C5248.000000,1594.666626 5248.000000,3185.333252 5248.000000,4776.000000 
	C4311.333496,4776.000000 3374.666748,4776.000000 2436.000000,4776.000000 
M3146.882324,3129.141602 
	C3147.852783,3129.465820 3148.822998,3129.790039 3148.514160,3132.571289 
	C3146.702637,3139.972168 3145.794678,3147.770508 3142.775146,3154.640381 
	C3140.611816,3159.562012 3142.208252,3166.592285 3132.367432,3168.391113 
	C3123.081299,3168.068359 3117.681641,3172.381592 3114.949707,3181.395020 
	C3111.504395,3192.762207 3108.052490,3204.255859 3100.628662,3214.919434 
	C3095.575439,3215.354736 3090.368408,3215.879883 3085.150146,3216.238770 
	C3067.936035,3217.422607 3050.732422,3218.907715 3033.497559,3219.595215 
	C3014.892090,3220.337646 2996.230957,3219.822510 2977.639648,3220.758545 
	C2958.533203,3221.721191 2939.481445,3223.774414 2919.999756,3225.384033 
	C2918.836182,3230.280762 2917.398438,3234.019287 2917.139404,3237.837646 
	C2916.239746,3251.108643 2915.949951,3264.420898 2915.062012,3277.692871 
	C2913.155518,3306.186279 2910.835693,3334.652588 2909.049316,3363.152832 
	C2908.010010,3379.738770 2907.840820,3396.377686 2906.965332,3412.975830 
	C2906.406738,3423.565674 2904.878418,3434.109863 2904.474854,3444.700684 
	C2903.562988,3468.621338 2903.099365,3492.558838 2902.409668,3516.488281 
	C2902.176758,3524.574219 2903.837891,3526.674561 2912.302246,3528.312500 
	C2914.255615,3528.690430 2916.268066,3528.754883 2918.246094,3529.015869 
	C2956.443359,3534.054199 2994.640381,3539.091309 3032.834717,3544.150879 
	C3042.717041,3545.459961 3052.569092,3547.022949 3062.471436,3548.152344 
	C3082.919434,3550.484131 3103.421143,3552.361328 3123.847412,3554.862061 
	C3160.137695,3559.304932 3196.384766,3564.102295 3232.656738,3568.694580 
	C3256.380127,3571.698730 3280.204346,3574.045410 3303.809082,3577.786133 
	C3315.759033,3579.679932 3327.488037,3580.809570 3342.364990,3578.725342 
	C3364.868896,3570.606689 3387.395508,3562.549805 3409.861816,3554.329102 
	C3416.035156,3552.070068 3422.577881,3550.183350 3427.186279,3542.728271 
	C3428.555908,3523.521484 3430.027344,3503.053223 3431.472168,3482.583252 
	C3433.059814,3460.091309 3431.685303,3437.565674 3434.908691,3414.992920 
	C3438.272461,3391.436523 3438.190430,3367.382812 3439.492676,3343.539551 
	C3440.145020,3331.597656 3439.145264,3319.378174 3441.358887,3307.753662 
	C3444.518555,3291.162354 3442.992432,3274.622803 3443.781738,3258.076660 
	C3444.186768,3249.585449 3440.198242,3244.706543 3432.643555,3241.231445 
	C3412.726074,3232.068604 3392.575195,3223.240967 3373.414062,3212.656006 
	C3355.909424,3202.986572 3337.746826,3203.682617 3319.164307,3205.222656 
	C3316.760986,3205.421875 3314.517090,3207.543457 3309.448730,3208.764893 
	C3307.615479,3208.798340 3305.782471,3208.831543 3300.505371,3208.297119 
	C3292.382080,3208.412109 3284.259033,3208.526855 3273.119385,3207.454834 
	C3267.545166,3204.180664 3268.241455,3198.630859 3268.137939,3193.445068 
	C3267.967041,3184.900146 3268.292480,3176.330322 3267.747070,3167.813232 
	C3267.357666,3161.729248 3263.234375,3158.393066 3257.039062,3158.788330 
	C3250.515137,3159.204590 3244.036133,3160.325195 3235.825928,3159.186035 
	C3234.969482,3155.547119 3233.708740,3151.943115 3233.387939,3148.257568 
	C3233.143066,3145.440918 3234.087891,3142.520508 3237.598877,3139.259521 
	C3239.344727,3135.743408 3241.838867,3132.402344 3242.710205,3128.681396 
	C3247.114258,3109.881836 3251.229980,3091.011475 3255.192383,3072.112549 
	C3260.244141,3048.016602 3264.668945,3023.784180 3270.039795,2999.761719 
	C3283.551270,2939.329590 3297.633057,2879.025391 3311.109619,2818.585938 
	C3319.075928,2782.857666 3326.103271,2746.920654 3333.961426,2711.167236 
	C3342.250977,2673.451416 3350.862305,2635.803955 3359.736572,2598.221436 
	C3361.385986,2591.236328 3364.097412,2584.194336 3367.775391,2578.050293 
	C3381.458984,2555.190674 3395.708252,2532.668945 3409.822021,2510.068359 
	C3431.347656,2475.599609 3452.907227,2441.151855 3474.578613,2406.774658 
	C3475.786377,2404.858887 3478.140869,2403.666260 3481.416504,2400.915039 
	C3483.198975,2407.096436 3484.713867,2411.316650 3485.623779,2415.663574 
	C3495.577148,2463.232422 3505.493164,2510.809570 3515.305664,2558.407715 
	C3526.058594,2610.567383 3536.727539,2662.744629 3547.368408,2714.927490 
	C3555.479980,2754.708984 3563.337891,2794.543213 3571.595703,2834.294189 
	C3577.826172,2864.285156 3584.832764,2894.116455 3590.897461,2924.139648 
	C3596.430664,2951.533447 3600.806396,2979.160889 3606.324463,3006.558105 
	C3616.313721,3056.153564 3626.677246,3105.674805 3637.142822,3155.172363 
	C3638.692627,3162.501953 3638.704102,3169.401367 3637.537109,3176.830078 
	C3629.379150,3228.757324 3621.326660,3280.707520 3614.085693,3332.767822 
	C3612.278320,3345.762207 3608.230225,3357.139404 3600.820557,3367.719482 
	C3583.620361,3392.279785 3566.744141,3417.067871 3549.428955,3441.546143 
	C3544.311035,3448.781006 3540.437744,3456.139160 3539.462891,3465.111084 
	C3537.235596,3485.608887 3534.530029,3506.054443 3532.191406,3526.540527 
	C3530.231445,3543.709473 3528.875000,3560.953613 3526.616455,3578.080811 
	C3522.092041,3612.388916 3516.839111,3646.601562 3512.432617,3680.924072 
	C3507.687500,3717.885986 3503.889893,3754.970459 3499.091797,3791.925049 
	C3493.526611,3834.789062 3487.367188,3877.575928 3481.355957,3920.381104 
	C3480.177002,3928.777344 3480.975342,3935.879150 3488.405518,3941.761475 
	C3493.535645,3945.822998 3497.662842,3951.335938 3501.620361,3956.659424 
	C3514.337158,3973.764893 3526.729004,3991.111572 3539.330078,4008.303955 
	C3543.258301,4013.663086 3547.153809,4019.098877 3551.611328,4024.002197 
	C3555.858398,4028.674316 3561.326416,4027.333496 3564.606689,4021.580078 
	C3570.145996,4011.864746 3568.849121,4002.096924 3563.912354,3992.941406 
	C3559.186035,3984.176758 3553.319092,3976.027100 3547.945557,3967.612061 
	C3541.697266,3957.827393 3541.561279,3952.025879 3550.266357,3944.999756 
	C3555.869873,3940.477295 3559.082275,3935.348877 3561.369629,3929.002930 
	C3567.694092,3911.455322 3574.260742,3893.993652 3580.439453,3876.395264 
	C3593.015137,3840.578125 3605.170166,3804.612061 3617.929932,3768.861084 
	C3629.126465,3737.488037 3641.222900,3706.435791 3652.370850,3675.046143 
	C3673.994141,3614.159424 3695.208984,3553.127441 3716.692871,3492.190674 
	C3717.695068,3489.348389 3719.669678,3486.848633 3721.191162,3484.189453 
	C3723.644043,3490.744385 3723.575439,3496.522949 3722.996582,3502.250000 
	C3722.530029,3506.865723 3721.253662,3511.394287 3720.669678,3516.003906 
	C3716.324219,3550.299805 3712.090820,3584.609619 3707.766846,3618.907959 
	C3702.691650,3659.166260 3697.513916,3699.411377 3692.463867,3739.672607 
	C3684.843750,3800.424805 3677.189941,3861.173340 3669.838379,3921.958008 
	C3668.818115,3930.394043 3666.690430,3939.033203 3668.927002,3946.223145 
	C3674.782959,3952.864502 3679.947266,3958.071045 3684.364014,3963.849121 
	C3699.333496,3983.430908 3714.037598,4003.215088 3728.843750,4022.921387 
	C3732.041260,4027.177002 3735.057617,4031.586670 3738.498047,4035.636230 
	C3741.432373,4039.090332 3746.006836,4038.723145 3748.914307,4035.419922 
	C3754.109863,4029.517334 3756.783203,4022.530762 3754.343750,4015.110596 
	C3751.670898,4006.980469 3747.777588,3999.190186 3743.803955,3991.571289 
	C3741.361084,3986.887451 3737.505615,3982.962402 3734.752686,3978.413330 
	C3729.443359,3969.639648 3729.136475,3963.289551 3736.760010,3956.961670 
	C3745.218018,3949.940918 3748.003662,3940.847412 3751.144287,3931.362305 
	C3754.912598,3919.981445 3758.960938,3908.692383 3762.978760,3897.396240 
	C3790.215820,3820.819824 3817.490234,3744.256836 3844.725586,3667.679932 
	C3863.476318,3614.959717 3882.083252,3562.188232 3900.939209,3509.505615 
	C3917.100342,3464.352539 3933.577148,3419.312744 3949.814697,3374.187012 
	C3963.816895,3335.273193 3973.609131,3295.134033 3984.379639,3255.272705 
	C3989.916992,3234.779297 3994.553223,3213.976318 4002.391846,3193.773682 
	C4009.147949,3192.185059 4015.484619,3190.694824 4022.852783,3188.962402 
	C4028.915039,3169.947021 4034.904785,3150.965576 4041.022461,3132.025391 
	C4047.369385,3112.375488 4053.808350,3092.754883 4060.266113,3073.140869 
	C4066.517090,3054.155273 4072.867432,3035.202148 4079.128906,3016.219971 
	C4085.598877,2996.605957 4092.103027,2977.002686 4098.429199,2957.342041 
	C4104.549316,2938.322021 4110.333496,2919.193359 4116.499512,2900.188721 
	C4122.875000,2880.538086 4129.564941,2860.989990 4136.056641,2841.376709 
	C4142.336914,2822.401123 4148.625488,2803.427246 4154.752441,2784.401367 
	C4161.083008,2764.742432 4167.136230,2744.993652 4173.473145,2725.336670 
	C4179.605469,2706.315430 4185.929688,2687.355957 4192.197266,2668.378662 
	C4198.674805,2648.765625 4205.156738,2629.154297 4211.689941,2609.559570 
	C4218.013184,2590.593994 4223.958008,2571.485107 4230.891113,2552.743652 
	C4237.906250,2533.781494 4240.114258,2513.082520 4251.282715,2493.090088 
	C4254.280273,2497.506104 4256.522949,2499.855469 4257.658691,2502.653809 
	C4261.917480,2513.147949 4265.801758,2523.793945 4269.851074,2534.373779 
	C4280.564941,2562.368896 4291.606445,2590.244873 4301.833984,2618.416260 
	C4305.200684,2627.689941 4307.942383,2637.650635 4308.426758,2647.423096 
	C4309.841797,2675.997559 4309.618652,2704.597168 4311.942871,2733.206787 
	C4314.581055,2765.679932 4311.409668,2798.398438 4314.113770,2831.024902 
	C4315.476562,2847.468750 4313.610352,2864.172363 4313.391113,2880.760986 
	C4313.329590,2885.400879 4313.892090,2890.052246 4314.238281,2894.693115 
	C4314.831055,2902.645264 4315.964844,2910.589844 4316.025391,2918.543701 
	C4316.396973,2967.198242 4316.512207,3015.854004 4316.770508,3064.509277 
	C4316.798828,3069.832031 4316.336426,3075.364990 4317.586426,3080.434082 
	C4321.317383,3095.564453 4320.663574,3110.867676 4320.570801,3126.179443 
	C4320.437988,3148.176025 4320.101562,3170.173584 4320.229980,3192.168457 
	C4320.264160,3198.037842 4321.675781,3203.899170 4322.743652,3211.270264 
	C4322.743652,3211.270264 4323.981445,3212.176758 4323.746094,3214.943604 
	C4320.455566,3220.329834 4317.195312,3225.735352 4313.865723,3231.096924 
	C4310.480957,3236.545898 4307.592773,3242.142822 4305.893555,3250.800781 
	C4303.605957,3256.386475 4303.071777,3261.910889 4305.866211,3269.601562 
	C4306.588379,3271.732910 4307.310547,3273.864502 4308.214844,3278.380859 
	C4311.337891,3280.976807 4314.422852,3280.172119 4316.986328,3277.750244 
	C4320.658691,3274.281006 4324.005859,3270.467529 4328.344727,3265.904053 
	C4330.594238,3269.913574 4332.288574,3272.437988 4333.445312,3275.188477 
	C4334.108887,3276.765381 4334.234863,3278.748779 4334.030762,3280.481934 
	C4331.730469,3300.055908 4329.904785,3319.714111 4326.681152,3339.138672 
	C4325.163574,3348.283447 4328.105957,3352.819824 4338.159180,3357.150391 
	C4343.001465,3361.018555 4348.020508,3363.994873 4354.426270,3360.633545 
	C4370.680664,3352.104980 4386.944336,3343.595703 4402.448242,3335.474854 
	C4406.093750,3319.467773 4409.613281,3304.740967 4412.729004,3289.929199 
	C4413.802246,3284.825928 4414.724121,3279.422607 4414.197754,3274.312988 
	C4413.393555,3266.516357 4410.209473,3258.888916 4409.967285,3251.129395 
	C4409.638672,3240.633301 4404.469727,3230.652100 4410.201172,3219.745850 
	C4414.696289,3218.899902 4417.198242,3215.871582 4417.989258,3211.693848 
	C4418.977051,3206.478760 4419.445312,3201.163574 4420.087891,3195.885254 
	C4422.016113,3180.041748 4423.625977,3164.152832 4425.895996,3148.358398 
	C4430.535645,3116.070557 4435.882812,3083.881836 4440.271973,3051.561523 
	C4444.927734,3017.270020 4448.536133,2982.836914 4453.121582,2948.535156 
	C4456.467773,2923.497070 4460.820801,2898.594971 4464.423828,2873.589111 
	C4468.697754,2843.924072 4472.593262,2814.204346 4476.757324,2784.523193 
	C4480.640625,2756.842529 4483.826172,2729.028320 4488.864258,2701.556396 
	C4493.500000,2676.280518 4493.015137,2651.602783 4488.841797,2626.285889 
	C4482.564453,2588.213135 4478.377930,2549.797119 4473.201660,2511.540771 
	C4464.906250,2450.231445 4456.499512,2388.937256 4448.196289,2327.628662 
	C4443.996094,2296.615479 4440.078125,2265.563232 4435.745117,2234.568848 
	C4430.770996,2198.986084 4425.368164,2163.463623 4420.358887,2127.885498 
	C4416.089355,2097.558105 4412.494629,2067.131348 4407.899414,2036.855103 
	C4403.353516,2006.902832 4404.436523,2012.324097 4379.365234,2002.132935 
	C4309.640137,1973.790649 4239.675781,1946.036255 4169.899414,1917.818970 
	C4135.338867,1903.843018 4100.983398,1889.360229 4066.380371,1872.273804 
	C4069.002197,1866.226074 4071.624268,1860.178345 4074.084961,1854.502319 
	C4070.726318,1844.692505 4065.572998,1835.540405 4064.770752,1826.021729 
	C4063.285400,1808.399048 4064.345703,1790.561768 4064.345703,1773.363159 
	C4073.323486,1769.030396 4080.892334,1765.377686 4088.656250,1761.630737 
	C4087.413330,1739.001343 4083.614258,1717.616089 4083.304199,1695.937256 
	C4083.020996,1676.159790 4077.744873,1656.654785 4080.291992,1633.443726 
	C4078.265137,1622.130859 4082.484619,1612.515015 4088.557373,1603.456543 
	C4093.490234,1596.098755 4093.914795,1589.073975 4089.113281,1581.163818 
	C4082.563965,1570.374512 4076.697266,1559.149780 4070.956299,1547.898315 
	C4067.422119,1540.971924 4062.394531,1536.601196 4055.005127,1533.964233 
	C4036.848145,1527.484985 4018.807129,1520.651611 4000.915527,1513.472412 
	C3993.709229,1510.580811 3986.730225,1510.861450 3979.402344,1511.956421 
	C3961.663086,1514.606445 3943.938232,1517.460571 3926.118164,1519.419556 
	C3915.862549,1520.546997 3906.748535,1523.398315 3898.602539,1529.810303 
	C3896.296143,1531.625977 3892.963379,1532.137817 3889.536133,1533.466797 
	C3886.556641,1525.034424 3887.654541,1517.698853 3887.651611,1510.521362 
	C3887.594238,1374.132202 3887.611572,1237.743164 3887.596680,1101.354004 
	C3887.595947,1094.702393 3887.827148,1088.013184 3887.186523,1081.415649 
	C3886.890137,1078.363159 3884.754150,1075.489136 3880.859131,1071.664673 
	C3868.397705,1071.583130 3855.930908,1071.270508 3843.478516,1071.566528 
	C3839.918213,1071.651245 3836.399902,1073.500244 3834.064941,1074.186646 
	C3829.986572,1082.779419 3834.275146,1091.748169 3826.043213,1094.041504 
	C3826.789062,1091.160034 3828.051514,1089.263306 3832.245117,1091.912354 
	C3832.245117,1256.953491 3832.250977,1422.654907 3832.192627,1588.356323 
	C3832.191650,1590.920532 3831.401611,1593.484497 3831.039551,1595.684692 
	C3798.611572,1609.408813 3793.854980,1620.542847 3808.689453,1648.983887 
	C3797.565674,1662.225708 3797.353271,1676.198853 3809.476318,1689.416504 
	C3797.565186,1711.231445 3797.555664,1711.537720 3807.666748,1731.301514 
	C3805.174316,1739.160156 3800.958008,1746.639648 3800.948486,1754.124268 
	C3800.939209,1761.553833 3805.164062,1768.988525 3807.808838,1777.290039 
	C3799.659668,1787.700684 3798.598633,1799.599731 3801.764893,1813.229614 
	C3789.828613,1819.809326 3788.091309,1831.071289 3784.975830,1843.796631 
	C3757.411865,1851.488037 3729.866455,1859.247070 3702.280518,1866.858032 
	C3609.206299,1892.537109 3516.116699,1918.159180 3423.037354,1943.818726 
	C3416.619873,1945.588013 3410.157715,1947.250244 3403.861328,1949.389160 
	C3397.261475,1951.631226 3392.315918,1955.928223 3389.902588,1962.715210 
	C3388.563721,1966.481201 3387.201416,1970.239014 3385.889893,1974.014648 
	C3363.597168,2038.186768 3341.400391,2102.392578 3318.994385,2166.525146 
	C3300.977295,2218.094727 3282.610352,2269.541748 3264.585205,2321.108643 
	C3252.059082,2356.944580 3239.850098,2392.891357 3227.498047,2428.788086 
	C3212.111328,2473.503418 3196.639160,2518.189941 3181.425537,2562.963867 
	C3179.083496,2569.856201 3177.141846,2577.069824 3176.391113,2584.278320 
	C3174.875488,2598.826660 3173.982910,2613.461182 3173.416504,2628.082520 
	C3172.385986,2654.684082 3171.672119,2681.253906 3168.927490,2707.803467 
	C3166.261230,2733.588379 3165.709961,2759.596924 3164.407227,2785.516113 
	C3163.771729,2798.159180 3163.927734,2810.849609 3163.036865,2823.469971 
	C3161.443604,2846.034180 3158.851074,2868.533936 3157.540039,2891.110596 
	C3155.302002,2929.651855 3153.850098,2968.238525 3151.826172,3006.793213 
	C3150.885254,3024.717529 3149.368652,3042.611572 3148.129395,3060.520752 
	C3147.257080,3073.122314 3146.116943,3085.715332 3145.653320,3098.332520 
	C3145.312988,3107.596436 3145.875732,3116.893799 3145.983398,3126.291504 
	C3145.983398,3126.291504 3146.203125,3126.147949 3146.882324,3129.141602 
z"/>
<path fill="#39404A" opacity="1.000000" stroke="none" 
	d="
M4066.535156,1875.106934 
	C4100.983398,1889.360229 4135.338867,1903.843018 4169.899414,1917.818970 
	C4239.675781,1946.036255 4309.640137,1973.790649 4379.365234,2002.132935 
	C4404.436523,2012.324097 4403.353516,2006.902832 4407.899414,2036.855103 
	C4412.494629,2067.131348 4416.089355,2097.558105 4420.358887,2127.885498 
	C4425.368164,2163.463623 4430.770996,2198.986084 4435.745117,2234.568848 
	C4440.078125,2265.563232 4443.996094,2296.615479 4448.196289,2327.628662 
	C4456.499512,2388.937256 4464.906250,2450.231445 4473.201660,2511.540771 
	C4478.377930,2549.797119 4482.564453,2588.213135 4488.841797,2626.285889 
	C4493.015137,2651.602783 4493.500000,2676.280518 4488.864258,2701.556396 
	C4483.826172,2729.028320 4480.640625,2756.842529 4476.757324,2784.523193 
	C4472.593262,2814.204346 4468.697754,2843.924072 4464.423828,2873.589111 
	C4460.820801,2898.594971 4456.467773,2923.497070 4453.121582,2948.535156 
	C4448.536133,2982.836914 4444.927734,3017.270020 4440.271973,3051.561523 
	C4435.882812,3083.881836 4430.535645,3116.070557 4425.895996,3148.358398 
	C4423.625977,3164.152832 4422.016113,3180.041748 4420.087891,3195.885254 
	C4419.445312,3201.163574 4418.977051,3206.478760 4417.989258,3211.693848 
	C4417.198242,3215.871582 4414.696289,3218.899902 4407.498047,3219.015625 
	C4399.509277,3213.695557 4392.926270,3213.250000 4386.415527,3212.312012 
	C4374.753906,3210.632324 4363.134766,3208.660156 4350.171875,3206.144043 
	C4339.443848,3203.181641 4330.280762,3202.354492 4322.455078,3209.764160 
	C4321.675781,3203.899170 4320.264160,3198.037842 4320.229980,3192.168457 
	C4320.101562,3170.173584 4320.437988,3148.176025 4320.570801,3126.179443 
	C4320.663574,3110.867676 4321.317383,3095.564453 4317.586426,3080.434082 
	C4316.336426,3075.364990 4316.798828,3069.832031 4316.770508,3064.509277 
	C4316.512207,3015.854004 4316.396973,2967.198242 4316.025391,2918.543701 
	C4315.964844,2910.589844 4314.831055,2902.645264 4314.238281,2894.693115 
	C4313.892090,2890.052246 4313.329590,2885.400879 4313.391113,2880.760986 
	C4313.610352,2864.172363 4315.476562,2847.468750 4314.113770,2831.024902 
	C4311.409668,2798.398438 4314.581055,2765.679932 4311.942871,2733.206787 
	C4309.618652,2704.597168 4309.841797,2675.997559 4308.426758,2647.423096 
	C4307.942383,2637.650635 4305.200684,2627.689941 4301.833984,2618.416260 
	C4291.606445,2590.244873 4280.564941,2562.368896 4269.851074,2534.373779 
	C4265.801758,2523.793945 4261.917480,2513.147949 4257.658691,2502.653809 
	C4256.522949,2499.855469 4254.280273,2497.506104 4251.282715,2493.090088 
	C4240.114258,2513.082520 4237.906250,2533.781494 4230.891113,2552.743652 
	C4223.958008,2571.485107 4218.013184,2590.593994 4211.689941,2609.559570 
	C4205.156738,2629.154297 4198.674805,2648.765625 4192.197266,2668.378662 
	C4185.929688,2687.355957 4179.605469,2706.315430 4173.473145,2725.336670 
	C4167.136230,2744.993652 4161.083008,2764.742432 4154.752441,2784.401367 
	C4148.625488,2803.427246 4142.336914,2822.401123 4136.056641,2841.376709 
	C4129.564941,2860.989990 4122.875000,2880.538086 4116.499512,2900.188721 
	C4110.333496,2919.193359 4104.549316,2938.322021 4098.429199,2957.342041 
	C4092.103027,2977.002686 4085.598877,2996.605957 4079.128906,3016.219971 
	C4072.867432,3035.202148 4066.517090,3054.155273 4060.266113,3073.140869 
	C4053.808350,3092.754883 4047.369385,3112.375488 4041.022461,3132.025391 
	C4034.904785,3150.965576 4028.915039,3169.947021 4022.852783,3188.962402 
	C4015.484619,3190.694824 4009.147949,3192.185059 4002.391846,3193.773682 
	C3994.553223,3213.976318 3989.916992,3234.779297 3984.379639,3255.272705 
	C3973.609131,3295.134033 3963.816895,3335.273193 3949.814697,3374.187012 
	C3933.577148,3419.312744 3917.100342,3464.352539 3900.939209,3509.505615 
	C3882.083252,3562.188232 3863.476318,3614.959717 3844.725586,3667.679932 
	C3817.490234,3744.256836 3790.215820,3820.819824 3762.978760,3897.396240 
	C3758.960938,3908.692383 3754.912598,3919.981445 3751.144287,3931.362305 
	C3748.003662,3940.847412 3745.218018,3949.940918 3736.760010,3956.961670 
	C3729.136475,3963.289551 3729.443359,3969.639648 3734.752686,3978.413330 
	C3737.505615,3982.962402 3741.361084,3986.887451 3743.803955,3991.571289 
	C3747.777588,3999.190186 3751.670898,4006.980469 3754.343750,4015.110596 
	C3756.783203,4022.530762 3754.109863,4029.517334 3748.914307,4035.419922 
	C3746.006836,4038.723145 3741.432373,4039.090332 3738.498047,4035.636230 
	C3735.057617,4031.586670 3732.041260,4027.177002 3728.843750,4022.921387 
	C3714.037598,4003.215088 3699.333496,3983.430908 3684.364014,3963.849121 
	C3679.947266,3958.071045 3674.782959,3952.864502 3668.927002,3946.223145 
	C3666.690430,3939.033203 3668.818115,3930.394043 3669.838379,3921.958008 
	C3677.189941,3861.173340 3684.843750,3800.424805 3692.463867,3739.672607 
	C3697.513916,3699.411377 3702.691650,3659.166260 3707.766846,3618.907959 
	C3712.090820,3584.609619 3716.324219,3550.299805 3720.669678,3516.003906 
	C3721.253662,3511.394287 3722.530029,3506.865723 3722.996582,3502.250000 
	C3723.575439,3496.522949 3723.644043,3490.744385 3721.191162,3484.189453 
	C3719.669678,3486.848633 3717.695068,3489.348389 3716.692871,3492.190674 
	C3695.208984,3553.127441 3673.994141,3614.159424 3652.370850,3675.046143 
	C3641.222900,3706.435791 3629.126465,3737.488037 3617.929932,3768.861084 
	C3605.170166,3804.612061 3593.015137,3840.578125 3580.439453,3876.395264 
	C3574.260742,3893.993652 3567.694092,3911.455322 3561.369629,3929.002930 
	C3559.082275,3935.348877 3555.869873,3940.477295 3550.266357,3944.999756 
	C3541.561279,3952.025879 3541.697266,3957.827393 3547.945557,3967.612061 
	C3553.319092,3976.027100 3559.186035,3984.176758 3563.912354,3992.941406 
	C3568.849121,4002.096924 3570.145996,4011.864746 3564.606689,4021.580078 
	C3561.326416,4027.333496 3555.858398,4028.674316 3551.611328,4024.002197 
	C3547.153809,4019.098877 3543.258301,4013.663086 3539.330078,4008.303955 
	C3526.729004,3991.111572 3514.337158,3973.764893 3501.620361,3956.659424 
	C3497.662842,3951.335938 3493.535645,3945.822998 3488.405518,3941.761475 
	C3480.975342,3935.879150 3480.177002,3928.777344 3481.355957,3920.381104 
	C3487.367188,3877.575928 3493.526611,3834.789062 3499.091797,3791.925049 
	C3503.889893,3754.970459 3507.687500,3717.885986 3512.432617,3680.924072 
	C3516.839111,3646.601562 3522.092041,3612.388916 3526.616455,3578.080811 
	C3528.875000,3560.953613 3530.231445,3543.709473 3532.191406,3526.540527 
	C3534.530029,3506.054443 3537.235596,3485.608887 3539.462891,3465.111084 
	C3540.437744,3456.139160 3544.311035,3448.781006 3549.428955,3441.546143 
	C3566.744141,3417.067871 3583.620361,3392.279785 3600.820557,3367.719482 
	C3608.230225,3357.139404 3612.278320,3345.762207 3614.085693,3332.767822 
	C3621.326660,3280.707520 3629.379150,3228.757324 3637.537109,3176.830078 
	C3638.704102,3169.401367 3638.692627,3162.501953 3637.142822,3155.172363 
	C3626.677246,3105.674805 3616.313721,3056.153564 3606.324463,3006.558105 
	C3600.806396,2979.160889 3596.430664,2951.533447 3590.897461,2924.139648 
	C3584.832764,2894.116455 3577.826172,2864.285156 3571.595703,2834.294189 
	C3563.337891,2794.543213 3555.479980,2754.708984 3547.368408,2714.927490 
	C3536.727539,2662.744629 3526.058594,2610.567383 3515.305664,2558.407715 
	C3505.493164,2510.809570 3495.577148,2463.232422 3485.623779,2415.663574 
	C3484.713867,2411.316650 3483.198975,2407.096436 3481.416504,2400.915039 
	C3478.140869,2403.666260 3475.786377,2404.858887 3474.578613,2406.774658 
	C3452.907227,2441.151855 3431.347656,2475.599609 3409.822021,2510.068359 
	C3395.708252,2532.668945 3381.458984,2555.190674 3367.775391,2578.050293 
	C3364.097412,2584.194336 3361.385986,2591.236328 3359.736572,2598.221436 
	C3350.862305,2635.803955 3342.250977,2673.451416 3333.961426,2711.167236 
	C3326.103271,2746.920654 3319.075928,2782.857666 3311.109619,2818.585938 
	C3297.633057,2879.025391 3283.551270,2939.329590 3270.039795,2999.761719 
	C3264.668945,3023.784180 3260.244141,3048.016602 3255.192383,3072.112549 
	C3251.229980,3091.011475 3247.114258,3109.881836 3242.710205,3128.681396 
	C3241.838867,3132.402344 3239.344727,3135.743408 3234.669922,3139.277100 
	C3227.492188,3135.324219 3222.088623,3135.518066 3216.832031,3135.127686 
	C3194.484863,3133.469238 3172.139404,3131.787842 3149.793457,3130.114746 
	C3148.822998,3129.790039 3147.852783,3129.465820 3146.606934,3127.604004 
	C3146.331543,3126.066162 3146.035889,3126.176270 3146.035889,3126.176270 
	C3145.875732,3116.893799 3145.312988,3107.596436 3145.653320,3098.332520 
	C3146.116943,3085.715332 3147.257080,3073.122314 3148.129395,3060.520752 
	C3149.368652,3042.611572 3150.885254,3024.717529 3151.826172,3006.793213 
	C3153.850098,2968.238525 3155.302002,2929.651855 3157.540039,2891.110596 
	C3158.851074,2868.533936 3161.443604,2846.034180 3163.036865,2823.469971 
	C3163.927734,2810.849609 3163.771729,2798.159180 3164.407227,2785.516113 
	C3165.709961,2759.596924 3166.261230,2733.588379 3168.927490,2707.803467 
	C3171.672119,2681.253906 3172.385986,2654.684082 3173.416504,2628.082520 
	C3173.982910,2613.461182 3174.875488,2598.826660 3176.391113,2584.278320 
	C3177.141846,2577.069824 3179.083496,2569.856201 3181.425537,2562.963867 
	C3196.639160,2518.189941 3212.111328,2473.503418 3227.498047,2428.788086 
	C3239.850098,2392.891357 3252.059082,2356.944580 3264.585205,2321.108643 
	C3282.610352,2269.541748 3300.977295,2218.094727 3318.994385,2166.525146 
	C3341.400391,2102.392578 3363.597168,2038.186768 3385.889893,1974.014648 
	C3387.201416,1970.239014 3388.563721,1966.481201 3389.902588,1962.715210 
	C3392.315918,1955.928223 3397.261475,1951.631226 3403.861328,1949.389160 
	C3410.157715,1947.250244 3416.619873,1945.588013 3423.037354,1943.818726 
	C3516.116699,1918.159180 3609.206299,1892.537109 3702.280518,1866.858032 
	C3729.866455,1859.247070 3757.411865,1851.488037 3787.265381,1844.636719 
	C3796.282959,1856.732910 3806.493164,1862.515625 3819.327637,1865.324463 
	C3819.438477,1866.302246 3820.322998,1868.062012 3820.071777,1869.914062 
	C3821.596436,1908.333496 3823.242676,1944.907959 3825.173340,1981.467285 
	C3829.807373,2069.211182 3834.691162,2156.941895 3839.251465,2244.689453 
	C3842.671875,2310.503662 3845.667480,2376.339600 3849.037354,2442.156738 
	C3849.751221,2456.096680 3851.268311,2469.995361 3852.067627,2485.394531 
	C3852.408936,2493.533691 3853.097900,2500.191162 3853.321045,2508.916504 
	C3851.709473,2524.116455 3850.623047,2537.254639 3849.405029,2550.380615 
	C3847.455566,2571.389648 3845.497559,2592.398438 3843.379883,2613.391113 
	C3842.554199,2621.577637 3844.213623,2628.928467 3848.400146,2636.082031 
	C3853.055420,2644.036377 3856.941650,2652.441406 3860.950684,2662.475098 
	C3861.352295,2722.937988 3865.829346,2783.909180 3871.417480,2801.478760 
	C3878.202637,2754.531006 3884.653564,2709.896729 3891.898438,2664.042480 
	C3897.497314,2655.651367 3901.744873,2648.015137 3907.244873,2641.424072 
	C3914.535400,2632.687256 3917.060547,2623.072510 3916.552734,2611.968506 
	C3916.128418,2602.696533 3916.464844,2593.369873 3916.862305,2584.084229 
	C3918.309570,2550.270264 3919.923340,2516.463623 3921.645996,2481.596191 
	C3922.888916,2473.980469 3923.975586,2467.425293 3925.027588,2460.864502 
	C3935.867920,2393.232910 3946.630371,2325.588623 3957.563477,2257.971924 
	C3965.633301,2208.065918 3973.953613,2158.200439 3982.104248,2108.307373 
	C3986.501465,2081.390625 3992.014160,2054.582520 3994.828125,2027.497192 
	C3999.501221,1982.516357 4002.405518,1937.351929 4007.161621,1891.033569 
	C4021.524658,1886.480103 4034.781006,1883.157837 4049.417969,1880.000488 
	C4052.591797,1879.752197 4054.385010,1879.338989 4057.176758,1879.058594 
	C4059.018311,1878.238647 4059.860840,1877.286011 4061.714355,1876.129517 
	C4063.994873,1875.652710 4065.265137,1875.379761 4066.535156,1875.106934 
M3760.246338,3418.423584 
	C3770.204590,3404.292725 3780.041260,3390.073975 3790.168457,3376.065186 
	C3795.746338,3368.349854 3799.248291,3360.104980 3800.588623,3350.562256 
	C3806.774414,3306.519043 3813.318848,3262.526123 3819.749756,3218.517334 
	C3820.999023,3209.966553 3822.524902,3201.449463 3823.510010,3192.869385 
	C3823.940674,3189.116455 3824.476074,3184.824219 3819.200684,3182.267334 
	C3813.687744,3184.259766 3812.874756,3189.611816 3811.529053,3194.580811 
	C3802.664307,3227.306885 3793.919434,3260.065918 3784.891602,3292.746582 
	C3780.998779,3306.838135 3776.986328,3320.928711 3772.223633,3334.742188 
	C3758.792236,3373.697754 3744.935059,3412.506104 3731.282715,3451.385742 
	C3730.479980,3453.671143 3730.003906,3456.070801 3729.376221,3458.417480 
	C3742.564453,3447.950195 3748.398193,3432.756836 3760.246338,3418.423584 
z"/>
<path fill="#39404A" opacity="1.000000" stroke="none" 
	d="
M3237.537354,3161.137939 
	C3244.036133,3160.325195 3250.515137,3159.204590 3257.039062,3158.788330 
	C3263.234375,3158.393066 3267.357666,3161.729248 3267.747070,3167.813232 
	C3268.292480,3176.330322 3267.967041,3184.900146 3268.137939,3193.445068 
	C3268.241455,3198.630859 3267.545166,3204.180664 3275.875244,3208.757812 
	C3287.222900,3212.889893 3295.689697,3213.072021 3303.949219,3208.864990 
	C3305.782471,3208.831543 3307.615479,3208.798340 3312.233398,3209.495850 
	C3320.941162,3210.813721 3326.869141,3211.943604 3332.786377,3211.890381 
	C3354.155029,3211.697998 3357.602295,3213.369873 3355.227539,3237.966309 
	C3355.100098,3239.285889 3354.654785,3240.573975 3354.523193,3241.893311 
	C3353.666748,3250.472168 3352.498291,3259.038330 3352.093262,3267.639893 
	C3350.499268,3301.474854 3349.157959,3335.321777 3347.691650,3369.163086 
	C3347.605713,3371.151611 3347.192139,3373.123779 3347.030029,3375.111572 
	C3346.006348,3387.669678 3344.857910,3400.220703 3344.063232,3412.793457 
	C3343.601807,3420.091797 3344.866943,3427.671875 3343.362793,3434.698486 
	C3339.269775,3453.816406 3340.238037,3473.090820 3339.925049,3492.353027 
	C3339.849365,3497.003174 3340.141113,3501.826904 3339.032959,3506.263184 
	C3334.436279,3524.664795 3336.234131,3543.357910 3336.161621,3561.934082 
	C3336.138672,3567.748779 3338.303223,3573.572021 3339.466309,3579.391357 
	C3327.488037,3580.809570 3315.759033,3579.679932 3303.809082,3577.786133 
	C3280.204346,3574.045410 3256.380127,3571.698730 3232.656738,3568.694580 
	C3196.384766,3564.102295 3160.137695,3559.304932 3123.847412,3554.862061 
	C3103.421143,3552.361328 3082.919434,3550.484131 3062.471436,3548.152344 
	C3052.569092,3547.022949 3042.717041,3545.459961 3032.834717,3544.150879 
	C2994.640381,3539.091309 2956.443359,3534.054199 2918.246094,3529.015869 
	C2916.268066,3528.754883 2914.255615,3528.690430 2912.302246,3528.312500 
	C2903.837891,3526.674561 2902.176758,3524.574219 2902.409668,3516.488281 
	C2903.099365,3492.558838 2903.562988,3468.621338 2904.474854,3444.700684 
	C2904.878418,3434.109863 2906.406738,3423.565674 2906.965332,3412.975830 
	C2907.840820,3396.377686 2908.010010,3379.738770 2909.049316,3363.152832 
	C2910.835693,3334.652588 2913.155518,3306.186279 2915.062012,3277.692871 
	C2915.949951,3264.420898 2916.239746,3251.108643 2917.139404,3237.837646 
	C2917.398438,3234.019287 2918.836182,3230.280762 2919.999756,3225.384033 
	C2939.481445,3223.774414 2958.533203,3221.721191 2977.639648,3220.758545 
	C2996.230957,3219.822510 3014.892090,3220.337646 3033.497559,3219.595215 
	C3050.732422,3218.907715 3067.936035,3217.422607 3085.150146,3216.238770 
	C3090.368408,3215.879883 3095.575439,3215.354736 3100.628662,3214.919434 
	C3108.052490,3204.255859 3111.504395,3192.762207 3114.949707,3181.395020 
	C3117.681641,3172.381592 3123.081299,3168.068359 3135.387207,3168.293701 
	C3139.331543,3170.600098 3141.263672,3173.121826 3140.998535,3175.386230 
	C3140.086426,3183.172363 3138.466797,3190.879639 3136.995605,3198.593994 
	C3136.050781,3203.547119 3132.594971,3208.425049 3136.542236,3213.415771 
	C3184.448730,3217.439697 3218.345703,3216.332275 3236.702148,3210.145996 
	C3241.300537,3200.326416 3242.893799,3190.706543 3238.017090,3180.017822 
	C3235.466553,3174.427979 3233.052490,3167.521240 3237.537354,3161.137939 
z"/>
<path fill="#EEEFEF" opacity="1.000000" stroke="none" 
	d="
M4066.457764,1873.690430 
	C4065.265137,1875.379761 4063.994873,1875.652710 4060.845459,1876.336670 
	C4057.837891,1877.219360 4056.908447,1877.945312 4056.177979,1878.925781 
	C4054.385010,1879.338989 4052.591797,1879.752197 4048.909424,1878.838623 
	C4041.826416,1870.028687 4051.600098,1862.942505 4048.148193,1853.619751 
	C4045.096436,1856.511230 4042.923828,1858.001587 4041.494141,1860.018433 
	C4032.915771,1872.118652 4021.003418,1873.507202 4007.728027,1870.938599 
	C4002.518799,1869.930664 3997.274658,1868.271362 3992.058105,1868.315186 
	C3982.152100,1868.398315 3974.104492,1864.424438 3966.306885,1859.023804 
	C3942.817383,1842.755371 3919.244629,1826.607056 3895.704834,1810.411743 
	C3894.609131,1809.657959 3893.544922,1808.854492 3892.417236,1808.152344 
	C3885.232910,1803.677856 3883.426514,1797.039673 3884.826660,1789.166504 
	C3885.291504,1786.552490 3886.251953,1784.013184 3886.574219,1781.389160 
	C3888.820068,1763.106934 3892.632812,1744.651245 3880.749756,1727.850952 
	C3879.663818,1726.315552 3879.591309,1724.063232 3879.206543,1720.596191 
	C3879.323730,1707.516357 3882.463867,1696.783203 3887.533447,1686.535156 
	C3890.882812,1679.764771 3895.929199,1674.699219 3902.694824,1671.317139 
	C3912.177490,1666.576904 3921.093994,1668.177856 3927.351074,1676.837036 
	C3930.366211,1681.009888 3932.225098,1686.189453 3933.824463,1691.165039 
	C3935.394043,1696.048340 3935.971191,1701.250610 3937.151611,1707.151855 
	C3947.673584,1704.259888 3957.120850,1701.663452 3967.897705,1698.701538 
	C3957.303711,1675.098633 3947.299316,1652.809570 3937.199707,1630.308228 
	C3942.455566,1618.250000 3947.487305,1606.162598 3954.873535,1594.763428 
	C3969.029785,1594.763428 3982.269287,1594.630737 3995.505127,1594.799683 
	C4009.415039,1594.977173 4023.321289,1595.443481 4037.229004,1595.783569 
	C4048.741699,1603.579468 4060.269775,1611.352783 4071.740479,1619.209961 
	C4072.776611,1619.919556 4073.441895,1621.170532 4073.233154,1620.921509 
	C4075.744385,1627.143188 4077.675293,1631.927490 4079.606201,1636.711792 
	C4077.744873,1656.654785 4083.020996,1676.159790 4083.304199,1695.937256 
	C4083.614258,1717.616089 4087.413330,1739.001343 4088.656250,1761.630737 
	C4080.892334,1765.377686 4073.323486,1769.030396 4064.345703,1773.363159 
	C4064.345703,1790.561768 4063.285400,1808.399048 4064.770752,1826.021729 
	C4065.572998,1835.540405 4070.726318,1844.692505 4074.084961,1854.502319 
	C4071.624268,1860.178345 4069.002197,1866.226074 4066.457764,1873.690430 
M4010.629639,1677.800293 
	C4023.080566,1686.141235 4025.062744,1686.126343 4035.839600,1676.886963 
	C4030.617432,1676.438599 4026.179199,1675.920288 4021.726807,1675.721558 
	C4018.506592,1675.577759 4015.267578,1675.858398 4010.629639,1677.800293 
z"/>
<path fill="#262B31" opacity="1.000000" stroke="none" 
	d="
M3340.915527,3579.058350 
	C3338.303223,3573.572021 3336.138672,3567.748779 3336.161621,3561.934082 
	C3336.234131,3543.357910 3334.436279,3524.664795 3339.032959,3506.263184 
	C3340.141113,3501.826904 3339.849365,3497.003174 3339.925049,3492.353027 
	C3340.238037,3473.090820 3339.269775,3453.816406 3343.362793,3434.698486 
	C3344.866943,3427.671875 3343.601807,3420.091797 3344.063232,3412.793457 
	C3344.857910,3400.220703 3346.006348,3387.669678 3347.030029,3375.111572 
	C3347.192139,3373.123779 3347.605713,3371.151611 3347.691650,3369.163086 
	C3349.157959,3335.321777 3350.499268,3301.474854 3352.093262,3267.639893 
	C3352.498291,3259.038330 3353.666748,3250.472168 3354.523193,3241.893311 
	C3354.654785,3240.573975 3355.100098,3239.285889 3355.227539,3237.966309 
	C3357.602295,3213.369873 3354.155029,3211.697998 3332.786377,3211.890381 
	C3326.869141,3211.943604 3320.941162,3210.813721 3313.608643,3209.500977 
	C3314.517090,3207.543457 3316.760986,3205.421875 3319.164307,3205.222656 
	C3337.746826,3203.682617 3355.909424,3202.986572 3373.414062,3212.656006 
	C3392.575195,3223.240967 3412.726074,3232.068604 3432.643555,3241.231445 
	C3440.198242,3244.706543 3444.186768,3249.585449 3443.781738,3258.076660 
	C3442.992432,3274.622803 3444.518555,3291.162354 3441.358887,3307.753662 
	C3439.145264,3319.378174 3440.145020,3331.597656 3439.492676,3343.539551 
	C3438.190430,3367.382812 3438.272461,3391.436523 3434.908691,3414.992920 
	C3431.685303,3437.565674 3433.059814,3460.091309 3431.472168,3482.583252 
	C3430.027344,3503.053223 3428.555908,3523.521484 3427.186279,3542.728271 
	C3422.577881,3550.183350 3416.035156,3552.070068 3409.861816,3554.329102 
	C3387.395508,3562.549805 3364.868896,3570.606689 3340.915527,3579.058350 
z"/>
<path fill="#3A434A" opacity="1.000000" stroke="none" 
	d="
M4079.949219,1635.077759 
	C4077.675293,1631.927490 4075.744385,1627.143188 4073.233154,1620.921509 
	C4073.441895,1621.170532 4072.776611,1619.919556 4071.740479,1619.209961 
	C4060.269775,1611.352783 4048.741699,1603.579468 4037.229004,1595.783569 
	C4023.321289,1595.443481 4009.415039,1594.977173 3995.505127,1594.799683 
	C3982.269287,1594.630737 3969.029785,1594.763428 3954.873535,1594.763428 
	C3947.487305,1606.162598 3942.455566,1618.250000 3937.199707,1630.308228 
	C3947.299316,1652.809570 3957.303711,1675.098633 3967.897705,1698.701538 
	C3957.120850,1701.663452 3947.673584,1704.259888 3937.151611,1707.151855 
	C3935.971191,1701.250610 3935.394043,1696.048340 3933.824463,1691.165039 
	C3932.225098,1686.189453 3930.366211,1681.009888 3927.351074,1676.837036 
	C3921.093994,1668.177856 3912.177490,1666.576904 3902.694824,1671.317139 
	C3895.929199,1674.699219 3890.882812,1679.764771 3887.533447,1686.535156 
	C3882.463867,1696.783203 3879.323730,1707.516357 3877.647949,1720.816040 
	C3863.325195,1725.462524 3850.719238,1728.341431 3837.833008,1729.409180 
	C3839.206787,1698.444824 3841.036377,1669.300171 3842.440674,1640.135010 
	C3843.141113,1625.582031 3843.064453,1610.991699 3843.771973,1594.979248 
	C3844.455566,1586.524292 3847.023193,1580.839111 3852.693115,1576.300293 
	C3861.001953,1569.649048 3868.921631,1562.512573 3877.027588,1555.606812 
	C3881.307129,1551.960449 3883.866943,1547.550659 3883.599121,1541.740479 
	C3883.476562,1539.083374 3883.517334,1536.417603 3883.519775,1533.755737 
	C3883.654785,1384.004639 3883.797852,1234.253540 3883.911865,1084.502441 
	C3883.914795,1080.513184 3883.612305,1076.523682 3883.452393,1072.534302 
	C3884.754150,1075.489136 3886.890137,1078.363159 3887.186523,1081.415649 
	C3887.827148,1088.013184 3887.595947,1094.702393 3887.596680,1101.354004 
	C3887.611572,1237.743164 3887.594238,1374.132202 3887.651611,1510.521362 
	C3887.654541,1517.698853 3886.556641,1525.034424 3889.536133,1533.466797 
	C3892.963379,1532.137817 3896.296143,1531.625977 3898.602539,1529.810303 
	C3906.748535,1523.398315 3915.862549,1520.546997 3926.118164,1519.419556 
	C3943.938232,1517.460571 3961.663086,1514.606445 3979.402344,1511.956421 
	C3986.730225,1510.861450 3993.709229,1510.580811 4000.915527,1513.472412 
	C4018.807129,1520.651611 4036.848145,1527.484985 4055.005127,1533.964233 
	C4062.394531,1536.601196 4067.422119,1540.971924 4070.956299,1547.898315 
	C4076.697266,1559.149780 4082.563965,1570.374512 4089.113281,1581.163818 
	C4093.914795,1589.073975 4093.490234,1596.098755 4088.557373,1603.456543 
	C4082.484619,1612.515015 4078.265137,1622.130859 4079.949219,1635.077759 
z"/>
<path fill="#CD9522" opacity="1.000000" stroke="none" 
	d="
M3882.155762,1072.099487 
	C3883.612305,1076.523682 3883.914795,1080.513184 3883.911865,1084.502441 
	C3883.797852,1234.253540 3883.654785,1384.004639 3883.519775,1533.755737 
	C3883.517334,1536.417603 3883.476562,1539.083374 3883.599121,1541.740479 
	C3883.866943,1547.550659 3881.307129,1551.960449 3877.027588,1555.606812 
	C3868.921631,1562.512573 3861.001953,1569.649048 3852.693115,1576.300293 
	C3847.023193,1580.839111 3844.455566,1586.524292 3842.353760,1594.269287 
	C3833.445801,1589.647339 3835.457764,1581.835938 3835.177002,1574.748657 
	C3834.708496,1562.930908 3837.019043,1550.705078 3829.331543,1540.080200 
	C3828.624756,1539.103516 3828.306396,1537.458374 3828.528076,1536.256470 
	C3831.217041,1521.667603 3826.809570,1507.384399 3826.861084,1492.832275 
	C3827.307861,1366.531982 3827.102295,1240.229126 3827.129150,1113.927124 
	C3827.130371,1108.639160 3827.507080,1103.351318 3827.708984,1098.063354 
	C3834.275146,1091.748169 3829.986572,1082.779419 3834.064941,1074.186646 
	C3836.399902,1073.500244 3839.918213,1071.651245 3843.478516,1071.566528 
	C3855.930908,1071.270508 3868.397705,1071.583130 3882.155762,1072.099487 
z"/>
<path fill="#EEEFEF" opacity="1.000000" stroke="none" 
	d="
M4351.497559,3206.810303 
	C4363.134766,3208.660156 4374.753906,3210.632324 4386.415527,3212.312012 
	C4392.926270,3213.250000 4399.509277,3213.695557 4405.915039,3219.125000 
	C4404.469727,3230.652100 4409.638672,3240.633301 4409.967285,3251.129395 
	C4410.209473,3258.888916 4413.393555,3266.516357 4414.197754,3274.312988 
	C4414.724121,3279.422607 4413.802246,3284.825928 4412.729004,3289.929199 
	C4409.613281,3304.740967 4406.093750,3319.467773 4402.448242,3335.474854 
	C4386.944336,3343.595703 4370.680664,3352.104980 4354.426270,3360.633545 
	C4348.020508,3363.994873 4343.001465,3361.018555 4337.882812,3354.939453 
	C4339.733398,3345.815674 4342.559570,3339.031006 4343.852051,3331.965820 
	C4347.308105,3313.066406 4349.249023,3293.854004 4353.457520,3275.140381 
	C4356.388672,3262.105713 4351.645020,3253.269287 4342.791992,3245.244385 
	C4338.077637,3240.971191 4333.729004,3241.251709 4328.682617,3245.685547 
	C4322.498047,3251.119873 4318.439941,3257.857178 4316.446777,3265.789307 
	C4315.237305,3270.602783 4312.999512,3274.374023 4308.032227,3275.996094 
	C4307.310547,3273.864502 4306.588379,3271.732910 4306.610352,3266.617188 
	C4307.532227,3258.696533 4307.709473,3253.760254 4307.886719,3248.823730 
	C4307.592773,3242.142822 4310.480957,3236.545898 4313.865723,3231.096924 
	C4317.195312,3225.735352 4320.455566,3220.329834 4325.161621,3212.547852 
	C4331.154785,3206.303711 4336.195801,3204.763916 4342.229492,3206.206299 
	C4345.197266,3206.916016 4348.400879,3206.640137 4351.497559,3206.810303 
z"/>
<path fill="#F1B638" opacity="1.000000" stroke="none" 
	d="
M3826.875977,1096.052490 
	C3827.507080,1103.351318 3827.130371,1108.639160 3827.129150,1113.927124 
	C3827.102295,1240.229126 3827.307861,1366.531982 3826.861084,1492.832275 
	C3826.809570,1507.384399 3831.217041,1521.667603 3828.528076,1536.256470 
	C3828.306396,1537.458374 3828.624756,1539.103516 3829.331543,1540.080200 
	C3837.019043,1550.705078 3834.708496,1562.930908 3835.177002,1574.748657 
	C3835.457764,1581.835938 3833.445801,1589.647339 3841.920898,1595.708252 
	C3843.064453,1610.991699 3843.141113,1625.582031 3842.440674,1640.135010 
	C3841.036377,1669.300171 3839.206787,1698.444824 3837.164795,1730.793945 
	C3833.993408,1753.545044 3830.952393,1773.068604 3828.553467,1792.670654 
	C3827.604980,1800.421753 3828.084473,1808.347656 3826.397461,1816.199707 
	C3818.019775,1814.841187 3811.157959,1813.476562 3804.296143,1812.112061 
	C3798.598633,1799.599731 3799.659668,1787.700684 3807.808838,1777.290039 
	C3805.164062,1768.988525 3800.939209,1761.553833 3800.948486,1754.124268 
	C3800.958008,1746.639648 3805.174316,1739.160156 3807.666748,1731.301514 
	C3797.555664,1711.537720 3797.565186,1711.231445 3809.476318,1689.416504 
	C3797.353271,1676.198853 3797.565674,1662.225708 3808.689453,1648.983887 
	C3793.854980,1620.542847 3798.611572,1609.408813 3831.039551,1595.684692 
	C3831.401611,1593.484497 3832.191650,1590.920532 3832.192627,1588.356323 
	C3832.250977,1422.654907 3832.245117,1256.953491 3832.245117,1091.912354 
	C3828.051514,1089.263306 3826.789062,1091.160034 3826.875977,1096.052490 
z"/>
<path fill="#EEEFEF" opacity="1.000000" stroke="none" 
	d="
M3236.681641,3160.162109 
	C3233.052490,3167.521240 3235.466553,3174.427979 3238.017090,3180.017822 
	C3242.893799,3190.706543 3241.300537,3200.326416 3236.702148,3210.145996 
	C3218.345703,3216.332275 3184.448730,3217.439697 3136.542236,3213.415771 
	C3132.594971,3208.425049 3136.050781,3203.547119 3136.995605,3198.593994 
	C3138.466797,3190.879639 3140.086426,3183.172363 3140.998535,3175.386230 
	C3141.263672,3173.121826 3139.331543,3170.600098 3137.026367,3168.790039 
	C3142.208252,3166.592285 3140.611816,3159.562012 3142.775146,3154.640381 
	C3145.794678,3147.770508 3146.702637,3139.972168 3149.153809,3131.343018 
	C3172.139404,3131.787842 3194.484863,3133.469238 3216.832031,3135.127686 
	C3222.088623,3135.518066 3227.492188,3135.324219 3233.122070,3139.470459 
	C3234.087891,3142.520508 3233.143066,3145.440918 3233.387939,3148.257568 
	C3233.708740,3151.943115 3234.969482,3155.547119 3236.681641,3160.162109 
z"/>
<path fill="#CD9522" opacity="1.000000" stroke="none" 
	d="
M3803.030518,1812.670898 
	C3811.157959,1813.476562 3818.019775,1814.841187 3827.978027,1816.420898 
	C3854.023926,1820.462769 3876.937988,1824.522095 3899.943604,1827.973511 
	C3906.772461,1828.998047 3912.626465,1830.684937 3917.698242,1835.718506 
	C3929.499512,1847.431274 3941.728760,1858.711914 3953.671631,1870.284302 
	C3955.946045,1872.488159 3958.438965,1875.056152 3955.054443,1879.489380 
	C3923.746582,1877.766846 3892.102783,1874.207153 3860.490479,1869.797485 
	C3846.760254,1867.882202 3833.454590,1862.387451 3819.217041,1864.346558 
	C3806.493164,1862.515625 3796.282959,1856.732910 3788.800781,1844.293701 
	C3788.091309,1831.071289 3789.828613,1819.809326 3803.030518,1812.670898 
z"/>
<path fill="#E3E2E0" opacity="1.000000" stroke="none" 
	d="
M4308.123535,3277.188477 
	C4312.999512,3274.374023 4315.237305,3270.602783 4316.446777,3265.789307 
	C4318.439941,3257.857178 4322.498047,3251.119873 4328.682617,3245.685547 
	C4333.729004,3241.251709 4338.077637,3240.971191 4342.791992,3245.244385 
	C4351.645020,3253.269287 4356.388672,3262.105713 4353.457520,3275.140381 
	C4349.249023,3293.854004 4347.308105,3313.066406 4343.852051,3331.965820 
	C4342.559570,3339.031006 4339.733398,3345.815674 4336.916992,3354.010742 
	C4328.105957,3352.819824 4325.163574,3348.283447 4326.681152,3339.138672 
	C4329.904785,3319.714111 4331.730469,3300.055908 4334.030762,3280.481934 
	C4334.234863,3278.748779 4334.108887,3276.765381 4333.445312,3275.188477 
	C4332.288574,3272.437988 4330.594238,3269.913574 4328.344727,3265.904053 
	C4324.005859,3270.467529 4320.658691,3274.281006 4316.986328,3277.750244 
	C4314.422852,3280.172119 4311.337891,3280.976807 4308.123535,3277.188477 
z"/>
<path fill="#3A434A" opacity="1.000000" stroke="none" 
	d="
M4350.171875,3206.144043 
	C4348.400879,3206.640137 4345.197266,3206.916016 4342.229492,3206.206299 
	C4336.195801,3204.763916 4331.154785,3206.303711 4325.279297,3211.164551 
	C4323.981445,3212.176758 4322.743652,3211.270264 4322.599609,3210.517090 
	C4330.280762,3202.354492 4339.443848,3203.181641 4350.171875,3206.144043 
z"/>
<path fill="#262B31" opacity="1.000000" stroke="none" 
	d="
M3302.227295,3208.581055 
	C3295.689697,3213.072021 3287.222900,3212.889893 3277.383301,3209.351562 
	C3284.259033,3208.526855 3292.382080,3208.412109 3302.227295,3208.581055 
z"/>
<path fill="#E3E2E0" opacity="1.000000" stroke="none" 
	d="
M4306.890137,3249.812256 
	C4307.709473,3253.760254 4307.532227,3258.696533 4306.912109,3265.465576 
	C4303.071777,3261.910889 4303.605957,3256.386475 4306.890137,3249.812256 
z"/>
<path fill="#EEEFEF" opacity="1.000000" stroke="none" 
	d="
M3146.009766,3126.233887 
	C3146.035889,3126.176270 3146.331543,3126.066162 3146.267334,3126.106934 
	C3146.203125,3126.147949 3145.983398,3126.291504 3146.009766,3126.233887 
z"/>
<path fill="#DE5354" opacity="1.000000" stroke="none" 
	d="
M3921.474121,2482.654053 
	C3919.923340,2516.463623 3918.309570,2550.270264 3916.862305,2584.084229 
	C3916.464844,2593.369873 3916.128418,2602.696533 3916.552734,2611.968506 
	C3917.060547,2623.072510 3914.535400,2632.687256 3907.244873,2641.424072 
	C3901.744873,2648.015137 3897.497314,2655.651367 3891.157227,2664.983398 
	C3885.031982,2672.161133 3882.451172,2679.172607 3875.571045,2682.993408 
	C3870.294922,2674.811768 3865.729004,2667.730957 3861.162598,2660.650391 
	C3856.941650,2652.441406 3853.055420,2644.036377 3848.400146,2636.082031 
	C3844.213623,2628.928467 3842.554199,2621.577637 3843.379883,2613.391113 
	C3845.497559,2592.398438 3847.455566,2571.389648 3849.405029,2550.380615 
	C3850.623047,2537.254639 3851.709473,2524.116455 3852.789307,2507.842773 
	C3853.610107,2497.767578 3854.496826,2490.833252 3855.783936,2482.232910 
	C3857.266113,2471.972412 3858.526611,2463.396240 3859.400391,2454.781006 
	C3864.039307,2409.046143 3868.599854,2363.303223 3873.152832,2317.559570 
	C3879.354492,2255.247803 3885.459961,2192.926025 3891.728271,2130.620850 
	C3896.530029,2082.894043 3901.529785,2035.187012 3906.415527,1987.468506 
	C3907.026123,1981.503418 3908.287598,1975.452148 3907.780762,1969.567017 
	C3907.233643,1963.211060 3904.964111,1957.003296 3903.408936,1950.578247 
	C3906.636719,1947.043579 3909.737549,1943.648071 3913.907471,1940.027832 
	C3917.700928,1938.894897 3920.425293,1937.986328 3923.810547,1938.232788 
	C3928.245850,1943.811279 3932.020020,1948.234863 3936.314697,1953.268311 
	C3929.486816,1960.666016 3927.799316,1968.647095 3927.655029,1977.622192 
	C3925.164062,2132.771973 3922.369873,2287.916748 3919.850830,2443.066162 
	C3919.636719,2456.249756 3920.898193,2469.457520 3921.474121,2482.654053 
z"/>
<path fill="#FCFAFA" opacity="1.000000" stroke="none" 
	d="
M3912.838379,1940.252441 
	C3909.737549,1943.648071 3906.636719,1947.043579 3903.408936,1950.578247 
	C3904.964111,1957.003296 3907.233643,1963.211060 3907.780762,1969.567017 
	C3908.287598,1975.452148 3907.026123,1981.503418 3906.415527,1987.468506 
	C3901.529785,2035.187012 3896.530029,2082.894043 3891.728271,2130.620850 
	C3885.459961,2192.926025 3879.354492,2255.247803 3873.152832,2317.559570 
	C3868.599854,2363.303223 3864.039307,2409.046143 3859.400391,2454.781006 
	C3858.526611,2463.396240 3857.266113,2471.972412 3855.041504,2482.191406 
	C3853.898926,2483.816406 3852.415283,2483.913086 3852.415283,2483.913086 
	C3851.268311,2469.995361 3849.751221,2456.096680 3849.037354,2442.156738 
	C3845.667480,2376.339600 3842.671875,2310.503662 3839.251465,2244.689453 
	C3834.691162,2156.941895 3829.807373,2069.211182 3825.173340,1981.467285 
	C3823.242676,1944.907959 3821.596436,1908.333496 3821.499512,1869.961426 
	C3827.287354,1869.967407 3832.143066,1870.919312 3835.378662,1873.733643 
	C3851.202881,1887.497314 3866.889648,1901.450073 3882.033691,1915.953369 
	C3891.570801,1925.087402 3901.398438,1933.633789 3912.838379,1940.252441 
z"/>
<path fill="#FCFAFA" opacity="1.000000" stroke="none" 
	d="
M3921.645996,2481.596191 
	C3920.898193,2469.457520 3919.636719,2456.249756 3919.850830,2443.066162 
	C3922.369873,2287.916748 3925.164062,2132.771973 3927.655029,1977.622192 
	C3927.799316,1968.647095 3929.486816,1960.666016 3936.314697,1953.268311 
	C3932.020020,1948.234863 3928.245850,1943.811279 3924.794434,1937.166138 
	C3943.027344,1924.821533 3960.804932,1914.453125 3978.904541,1904.681274 
	C3987.642090,1899.963745 3996.985596,1896.368164 4006.054932,1892.264648 
	C4002.405518,1937.351929 3999.501221,1982.516357 3994.828125,2027.497192 
	C3992.014160,2054.582520 3986.501465,2081.390625 3982.104248,2108.307373 
	C3973.953613,2158.200439 3965.633301,2208.065918 3957.563477,2257.971924 
	C3946.630371,2325.588623 3935.867920,2393.232910 3925.027588,2460.864502 
	C3923.975586,2467.425293 3922.888916,2473.980469 3921.645996,2481.596191 
z"/>
<path fill="#E3E2E0" opacity="1.000000" stroke="none" 
	d="
M4007.161621,1891.033447 
	C3996.985596,1896.368164 3987.642090,1899.963745 3978.904541,1904.681274 
	C3960.804932,1914.453125 3943.027344,1924.821533 3924.133545,1936.011230 
	C3920.425293,1937.986328 3917.700928,1938.894897 3913.907471,1940.027832 
	C3901.398438,1933.633789 3891.570801,1925.087402 3882.033691,1915.953369 
	C3866.889648,1901.450073 3851.202881,1887.497314 3835.378662,1873.733643 
	C3832.143066,1870.919312 3827.287354,1869.967407 3821.750488,1868.109497 
	C3820.322998,1868.062012 3819.438477,1866.302246 3819.327637,1865.324463 
	C3833.454590,1862.387451 3846.760254,1867.882202 3860.490479,1869.797485 
	C3892.102783,1874.207153 3923.746582,1877.766846 3955.054443,1879.489380 
	C3958.438965,1875.056152 3955.946045,1872.488159 3953.671631,1870.284302 
	C3941.728760,1858.711914 3929.499512,1847.431274 3917.698242,1835.718506 
	C3912.626465,1830.684937 3906.772461,1828.998047 3899.943604,1827.973511 
	C3876.937988,1824.522095 3854.023926,1820.462769 3829.494141,1816.414917 
	C3828.084473,1808.347656 3827.604980,1800.421753 3828.553467,1792.670654 
	C3830.952393,1773.068604 3833.993408,1753.545044 3837.445068,1732.605225 
	C3850.719238,1728.341431 3863.325195,1725.462524 3877.489746,1722.363770 
	C3879.591309,1724.063232 3879.663818,1726.315552 3880.749756,1727.850952 
	C3892.632812,1744.651245 3888.820068,1763.106934 3886.574219,1781.389160 
	C3886.251953,1784.013184 3885.291504,1786.552490 3884.826660,1789.166504 
	C3883.426514,1797.039673 3885.232910,1803.677856 3892.417236,1808.152344 
	C3893.544922,1808.854492 3894.609131,1809.657959 3895.704834,1810.411743 
	C3919.244629,1826.607056 3942.817383,1842.755371 3966.306885,1859.023804 
	C3974.104492,1864.424438 3982.152100,1868.398315 3992.058105,1868.315186 
	C3997.274658,1868.271362 4002.518799,1869.930664 4007.728027,1870.938599 
	C4021.003418,1873.507202 4032.915771,1872.118652 4041.494141,1860.018433 
	C4042.923828,1858.001587 4045.096436,1856.511230 4048.148193,1853.619751 
	C4051.600098,1862.942505 4041.826416,1870.028687 4047.528564,1878.673584 
	C4034.781006,1883.157837 4021.524658,1886.480103 4007.161621,1891.033447 
z"/>
<path fill="#000000" opacity="1.000000" stroke="none" 
	d="
M3759.444824,3419.609863 
	C3748.398193,3432.756836 3742.564453,3447.950195 3729.376221,3458.417480 
	C3730.003906,3456.070801 3730.479980,3453.671143 3731.282715,3451.385742 
	C3744.935059,3412.506104 3758.792236,3373.697754 3772.223633,3334.742188 
	C3776.986328,3320.928711 3780.998779,3306.838135 3784.891602,3292.746582 
	C3793.919434,3260.065918 3802.664307,3227.306885 3811.529053,3194.580811 
	C3812.874756,3189.611816 3813.687744,3184.259766 3819.200684,3182.267334 
	C3824.476074,3184.824219 3823.940674,3189.116455 3823.510010,3192.869385 
	C3822.524902,3201.449463 3820.999023,3209.966553 3819.749756,3218.517334 
	C3813.318848,3262.526123 3806.774414,3306.519043 3800.588623,3350.562256 
	C3799.248291,3360.104980 3795.746338,3368.349854 3790.168457,3376.065186 
	C3780.041260,3390.073975 3770.204590,3404.292725 3759.444824,3419.609863 
z"/>
<path fill="#EEEFEF" opacity="1.000000" stroke="none" 
	d="
M3860.950928,2662.474854 
	C3865.729004,2667.730957 3870.294922,2674.811768 3875.571045,2682.993408 
	C3882.451172,2679.172607 3885.031982,2672.161133 3890.363281,2666.203125 
	C3884.653564,2709.896729 3878.202637,2754.531006 3871.417480,2801.478760 
	C3865.829346,2783.909180 3861.352295,2722.937988 3860.950928,2662.474854 
z"/>
<path fill="#E3E2E0" opacity="1.000000" stroke="none" 
	d="
M3852.067627,2485.394531 
	C3852.415283,2483.913086 3853.898926,2483.816406 3854.641113,2483.857666 
	C3854.496826,2490.833252 3853.610107,2497.767578 3853.255127,2505.775391 
	C3853.097900,2500.191162 3852.408936,2493.533691 3852.067627,2485.394531 
z"/>
<path fill="#E3E2E0" opacity="1.000000" stroke="none" 
	d="
M4057.176758,1879.058594 
	C4056.908447,1877.945312 4057.837891,1877.219360 4059.834961,1876.540771 
	C4059.860840,1877.286011 4059.018311,1878.238647 4057.176758,1879.058594 
z"/>
<path fill="#3A434A" opacity="1.000000" stroke="none" 
	d="
M4011.333252,1676.875000 
	C4015.267578,1675.858398 4018.506592,1675.577759 4021.726807,1675.721558 
	C4026.179199,1675.920288 4030.617432,1676.438599 4035.839600,1676.886963 
	C4025.062744,1686.126343 4023.080566,1686.141235 4011.333252,1676.875000 
z"/>
</svg>