<?xml version="1.0" encoding="UTF-8" standalone="no"?>
<svg
   xmlns:dc="http://purl.org/dc/elements/1.1/"
   xmlns:cc="http://creativecommons.org/ns#"
   xmlns:rdf="http://www.w3.org/1999/02/22-rdf-syntax-ns#"
   xmlns:svg="http://www.w3.org/2000/svg"
   xmlns="http://www.w3.org/2000/svg"
   viewBox="0 0 1700.7867 1547.4532"
   height="1547.4532"
   width="1700.7867"
   xml:space="preserve"
   id="svg2"
   version="1.1"><metadata
     id="metadata8"><rdf:RDF><cc:Work
         rdf:about=""><dc:format>image/svg+xml</dc:format><dc:type
           rdf:resource="http://purl.org/dc/dcmitype/StillImage" /></cc:Work></rdf:RDF></metadata><defs
     id="defs6" /><g
     transform="matrix(1.3333333,0,0,-1.3333333,0,1547.4533)"
     id="g10"><g
       transform="scale(0.1)"
       id="g12"><path
         id="path14"
         style="fill:#25d2e5;fill-opacity:1;fill-rule:evenodd;stroke:none"
         d="M -0.0117188,0 H 12755.9 V 11605.9 H -0.0117188 V 0" /><path
         id="path16"
         style="fill:#d0951f;fill-opacity:1;fill-rule:evenodd;stroke:none"
         d="m 9312.39,9230.55 c 0,31.31 25.38,56.7 56.69,56.7 31.31,0 56.7,-25.39 56.7,-56.7 V 7246.37 c 0,-31.31 -25.39,-56.7 -56.7,-56.7 -31.31,0 -56.69,25.39 -56.69,56.7 v 1984.18" /><path
         id="path18"
         style="fill:#ffbb35;fill-opacity:1;fill-rule:evenodd;stroke:none"
         d="m 9306.99,7398.13 c -30.33,-7.71 -61.16,10.63 -68.86,40.96 -7.71,30.34 10.63,61.18 40.96,68.88 l 149.31,38.01 c 30.33,7.7 61.17,-10.64 68.88,-40.97 7.7,-30.33 -10.64,-61.16 -40.97,-68.87 l -149.32,-38.01" /><path
         id="path20"
         style="fill:#ffbb35;fill-opacity:1;fill-rule:evenodd;stroke:none"
         d="m 9306.99,7294.79 c -30.33,-7.71 -61.16,10.63 -68.86,40.96 -7.71,30.34 10.63,61.18 40.96,68.88 l 149.31,38.01 c 30.33,7.7 61.17,-10.64 68.88,-40.97 7.7,-30.33 -10.64,-61.16 -40.97,-68.87 l -149.32,-38.01" /><path
         id="path22"
         style="fill:#ffbb35;fill-opacity:1;fill-rule:evenodd;stroke:none"
         d="m 9306.99,7191.45 c -30.33,-7.71 -61.16,10.63 -68.86,40.96 -7.71,30.34 10.63,61.18 40.96,68.88 l 149.31,38.01 c 30.33,7.7 61.17,-10.64 68.88,-40.97 7.7,-30.33 -10.64,-61.16 -40.97,-68.87 l -149.32,-38.01" /><path
         id="path24"
         style="fill:#ffbb35;fill-opacity:1;fill-rule:evenodd;stroke:none"
         d="m 9306.99,7501.47 c -30.33,-7.71 -61.16,10.63 -68.86,40.96 -7.71,30.34 10.63,61.18 40.96,68.88 l 149.31,38.02 c 30.33,7.69 61.17,-10.65 68.88,-40.98 7.7,-30.33 -10.64,-61.16 -40.97,-68.87 l -149.32,-38.01" /><path
         id="path26"
         style="fill:#ffbb35;fill-opacity:1;fill-rule:evenodd;stroke:none"
         d="m 9306.99,7604.81 c -30.33,-7.71 -61.16,10.63 -68.86,40.96 -7.71,30.34 10.63,61.17 40.96,68.88 l 149.31,38.02 c 30.33,7.69 61.17,-10.65 68.88,-40.98 7.7,-30.33 -10.64,-61.16 -40.97,-68.87 l -149.32,-38.01" /><path
         id="path28"
         style="fill:#ffbb35;fill-opacity:1;fill-rule:evenodd;stroke:none"
         d="m 9558.91,9885.83 c -31.31,0 -56.7,-25.38 -56.7,-56.69 0,-31.31 25.39,-56.69 56.7,-56.69 h 76.43 v -655.8 h -53 c -31.3,0 -56.7,-25.39 -56.7,-56.7 0,-31.31 25.4,-56.69 56.7,-56.69 h 109.69 c 31.31,0 56.69,25.38 56.69,56.69 v 769.19 c 0,31.31 -25.38,56.69 -56.69,56.69 h -133.12" /><path
         id="path30"
         style="fill:#805224;fill-opacity:1;fill-rule:evenodd;stroke:none"
         d="M 4646.53,9775.56 V 0 H 3984.5 v 9775.56 h 662.03" /><path
         id="path32"
         style="fill:#805224;fill-opacity:1;fill-rule:evenodd;stroke:none"
         d="M 3984.5,7086.47 6576.66,9678.61 7044.78,9210.49 4452.64,6618.34 3984.5,7086.47" /><path
         id="path34"
         style="fill:#805224;fill-opacity:1;fill-rule:evenodd;stroke:none"
         d="m 2910.67,9113.53 h 7331.73 v 662.03 H 2910.67 v -662.03" /><path
         id="path36"
         style="fill:#805224;fill-opacity:1;fill-rule:evenodd;stroke:none"
         d="m 2910.67,9113.54 h 7331.73 v 662.03 H 2910.67 v -662.03" /><path
         id="path38"
         style="fill:#805224;fill-opacity:1;fill-rule:evenodd;stroke:none"
         d="M 3846.74,1704.02 5550.8,0 h 936.25 L 4314.87,2172.14 3846.74,1704.02" /><path
         id="path40"
         style="fill:#805224;fill-opacity:1;fill-rule:evenodd;stroke:none"
         d="M 4784.3,1704.02 3080.23,0 h -936.25 l 2172.19,2172.14 468.13,-468.12" /><path
         id="path42"
         style="fill:#986633;fill-opacity:1;fill-rule:evenodd;stroke:none"
         d="M 4107.1,9775.56 V 0 h -662.03 v 9775.56 h 662.03" /><path
         id="path44"
         style="fill:#986633;fill-opacity:1;fill-rule:evenodd;stroke:none"
         d="M 3445.07,7086.47 6037.23,9678.61 6505.35,9210.49 3913.2,6618.34 3445.07,7086.47" /><path
         id="path46"
         style="fill:#986633;fill-opacity:1;fill-rule:evenodd;stroke:none"
         d="m 2371.24,9113.53 h 7331.69 v 662.03 H 2371.24 v -662.03" /><path
         id="path48"
         style="fill:#986633;fill-opacity:1;fill-rule:evenodd;stroke:none"
         d="m 2371.24,9113.54 h 7331.7 v 662.03 h -7331.7 v -662.03" /><path
         id="path50"
         style="fill:#986633;fill-opacity:1;fill-rule:evenodd;stroke:none"
         d="M 3307.3,1704.02 5011.37,0 h 936.26 L 3775.44,2172.14 3307.3,1704.02" /><path
         id="path52"
         style="fill:#986633;fill-opacity:1;fill-rule:evenodd;stroke:none"
         d="M 4244.86,1704.02 2540.8,0 h -936.25 l 2172.19,2172.14 468.12,-468.12" /><path
         id="path54"
         style="fill:#ffbb35;fill-opacity:1;fill-rule:evenodd;stroke:none"
         d="m 9166.14,9885.83 c 31.31,0 56.69,-25.38 56.69,-56.69 0,-31.31 -25.38,-56.69 -56.69,-56.69 h -76.43 v -655.8 h 53 c 31.3,0 56.68,-25.39 56.68,-56.7 0,-31.31 -25.38,-56.69 -56.68,-56.69 h -109.69 c -31.31,0 -56.7,25.38 -56.7,56.69 v 769.19 c 0,31.31 25.39,56.69 56.7,56.69 h 133.12" /><path
         id="path56"
         style="fill:#ffbb35;fill-opacity:1;fill-rule:evenodd;stroke:none"
         d="m 9305.83,9885.83 c 31.31,0 56.69,-25.38 56.69,-56.69 0,-31.31 -25.38,-56.69 -56.69,-56.69 h -76.44 v -655.8 h 53 c 31.31,0 56.69,-25.39 56.69,-56.7 0,-31.31 -25.38,-56.69 -56.69,-56.69 h -109.68 c -31.31,0 -56.7,25.38 -56.7,56.69 v 769.19 c 0,31.31 25.39,56.69 56.7,56.69 h 133.12" /><path
         id="path58"
         style="fill:#ffbb35;fill-opacity:1;fill-rule:evenodd;stroke:none"
         d="m 9445.52,9885.83 c 31.31,0 56.69,-25.38 56.69,-56.69 0,-31.31 -25.38,-56.69 -56.69,-56.69 h -76.44 v -655.8 h 53 c 31.31,0 56.69,-25.39 56.69,-56.7 0,-31.31 -25.38,-56.69 -56.69,-56.69 h -109.69 c -31.31,0 -56.69,25.38 -56.69,56.69 v 769.19 c 0,31.31 25.38,56.69 56.69,56.69 h 133.13" /><path
         id="path60"
         style="fill:#ffbb35;fill-opacity:1;fill-rule:evenodd;stroke:none"
         d="m 9585.21,9885.83 c 31.3,0 56.68,-25.38 56.68,-56.69 0,-31.31 -25.38,-56.69 -56.68,-56.69 h -76.44 v -655.8 h 53 c 31.31,0 56.7,-25.39 56.7,-56.7 0,-31.31 -25.39,-56.69 -56.7,-56.69 h -109.69 c -31.31,0 -56.69,25.38 -56.69,56.69 v 769.19 c 0,31.31 25.38,56.69 56.69,56.69 h 133.13" /><path
         id="path62"
         style="fill:#39404a;fill-opacity:1;fill-rule:evenodd;stroke:none"
         d="m 7935.54,3698.33 -11.96,223.94 -343.54,-26.58 -73.98,-194.11 40.72,-21.42 62.73,166.86 273.58,19.34 7.65,-173.87 44.8,5.84" /><path
         id="path64"
         style="fill:#f1f1f1;fill-opacity:1;fill-rule:evenodd;stroke:none"
         d="m 7821.03,4050.09 41.88,-193.67 -10.19,-57.15 -68.37,-23.47 -163.92,32.2 3.86,72.56 8.53,46 28.12,110.72 160.09,12.81" /><path
         id="path66"
         style="fill:#39404a;fill-opacity:1;fill-rule:evenodd;stroke:none"
         d="m 8146.97,3807.88 c -175.88,-7.22 -351.88,-14.44 -527.76,-21.67 -175.88,-7.22 -351.89,-14.44 -527.9,-21.67 -7.12,-120.45 -14.24,-240.89 -21.35,-361.24 -7.11,-120.26 -14.23,-240.71 -21.34,-360.97 174.27,-22.21 348.55,-44.35 522.7,-66.47 174.14,-22.12 348.41,-44.24 522.56,-66.36 8.84,149.61 17.69,299.4 26.54,449.11 8.84,149.59 17.71,299.48 26.55,449.27" /><path
         id="path68"
         style="fill:#272c33;fill-opacity:1;fill-rule:evenodd;stroke:none"
         d="m 8146.97,3807.88 c 34.62,-16.18 69.27,-32.36 103.88,-48.54 34.62,-16.18 69.26,-32.38 103.91,-48.56 -7.12,-120.45 -14.24,-240.89 -21.36,-361.24 -7.1,-120.26 -14.23,-240.71 -21.33,-360.97 -36.39,-13.26 -72.76,-26.42 -109.12,-39.58 -36.34,-13.17 -72.72,-26.32 -109.07,-39.49 8.84,149.61 17.69,299.4 26.54,449.11 8.84,149.59 17.71,299.48 26.55,449.27" /><path
         id="path70"
         style="fill:#39404a;fill-opacity:1;fill-rule:evenodd;stroke:none"
         d="m 8244.71,6857.47 1080.44,297.36 388.58,-47.83 975.97,-394.03 -929.12,-2853.21 -914.99,54.07 -600.88,2943.64" /><path
         id="path72"
         style="fill:#39404a;fill-opacity:1;fill-rule:evenodd;stroke:none"
         d="m 8561.7,2094.2 47.28,-64.47 -21.21,-49.36 c 77.73,-93.24 86.13,-124.87 48.64,-158.7 l -163.17,221.65 88.46,50.88" /><path
         id="path74"
         style="fill:#39404a;fill-opacity:1;fill-rule:evenodd;stroke:none"
         d="m 9430.95,4536.76 -265.69,-996.85 -536.31,-1510.3 -170.01,10.05 146.87,1167.23 172.16,250.02 195.13,1318.68 457.85,-238.83" /><path
         id="path76"
         style="fill:#39404a;fill-opacity:1;fill-rule:evenodd;stroke:none"
         d="m 8244.71,6857.47 -523.46,-1507.45 -79.95,-1352.68 216.42,-12.8 296.38,1339.9 304.17,486.81 47.13,702.68 -260.69,343.54" /><path
         id="path78"
         style="fill:#ffffff;fill-opacity:1;fill-rule:evenodd;stroke:none"
         d="m 9275.21,7105.33 118.75,-2331.72 306.43,1895.94 32.32,384.44 -457.5,51.34" /><path
         id="path80"
         style="fill:#df4e4f;fill-opacity:1;fill-rule:evenodd;stroke:none"
         d="m 9562.87,6958.97 10.61,-78.29 -34.89,-43.75 -27.65,-1613.46 -98.87,-143.53 -81.28,154.17 162.6,1605.49 -34.45,47.84 24.71,76.21 39.61,-2.34 39.61,-2.34" /><path
         id="path82"
         style="fill:#ffffff;fill-opacity:1;fill-rule:evenodd;stroke:none"
         d="m 9280.52,7001.31 125.67,-187.91 114.73,92.38 -245.71,199.55 5.31,-104.02" /><path
         id="path84"
         style="fill:#ffffff;fill-opacity:1;fill-rule:evenodd;stroke:none"
         d="m 9723.18,6940.67 -99.21,-140.14 -103.05,105.25 211.79,148.21 -9.53,-113.32" /><path
         id="path86"
         style="fill:#e4e4e4;fill-opacity:1;fill-rule:evenodd;stroke:none"
         d="m 9350.36,7649.19 -73.34,-557.67 220.47,-195.71 227.48,118.3 70.4,263.03 -445.01,372.05" /><path
         id="path88"
         style="fill:#f1f1f1;fill-opacity:1;fill-rule:evenodd;stroke:none"
         d="m 10687.1,3827.39 27.4,-195.82 -28.3,-126.81 -127,-64.1 -43.4,30.48 24.9,197.6 -8.9,35.94 -60.5,-63.66 -6.1,56.89 15.7,44.06 63,100.37 143.2,-14.95" /><path
         id="path90"
         style="fill:#e4e4e4;fill-opacity:1;fill-rule:evenodd;stroke:none"
         d="m 10542.2,3452.63 -26.4,18.51 24.9,197.6 -8.9,35.93 -60.5,-63.65 27.8,62.04 40.7,36.25 40.8,-61.05 -38.4,-225.63" /><path
         id="path92"
         style="fill:#39404a;fill-opacity:1;fill-rule:evenodd;stroke:none"
         d="m 10689.7,6712.97 216.5,-1581.01 -188,-1341.95 -214.7,30.06 -26.8,1372.02 -200,530.07 89.8,705.31 323.2,285.5" /><path
         id="path94"
         style="fill:#d0951f;fill-opacity:1;fill-rule:evenodd;stroke:none"
         d="m 9805.56,7041.87 c -71.4,-3.06 -145.97,-2.53 -222.46,1.98 -118.39,7 -231.11,22.95 -333.67,45.83 -29.22,6.51 -48.28,34.48 -43.68,64.05 l 0.13,0.81 c 2.51,16.13 10.72,29.07 24.24,38.23 13.52,9.15 28.58,11.96 44.5,8.29 95.37,-21.95 201.96,-37.33 315.17,-44.02 89.24,-5.27 175.04,-4.7 255.03,0.95 l -39.26,-116.12" /><path
         id="path96"
         style="fill:#f1f1f1;fill-opacity:1;fill-rule:evenodd;stroke:none"
         d="m 9900.8,7728.85 -9.63,-48.03 28.74,-349.09 -57.77,-20.87 -1.29,-143.65 24.78,-62.85 -25.89,-59.49 c -259.1,-22.63 -223.98,17.04 -429.69,187.71 l 41.19,268.79 -12.67,91.52 214.57,267.43 227.66,-131.47" /><path
         id="path98"
         style="fill:#39404a;fill-opacity:1;fill-rule:evenodd;stroke:none"
         d="m 9338.96,7769.3 -20.73,-365.63 319.55,79.96 -78.36,167.44 41.96,86.33 204.08,-0.37 87.07,-61.33 39.95,64.59 -66.41,125.83 -172.37,62.93 -198.13,-27.56 -156.61,-132.19" /><path
         id="path100"
         style="fill:#f1f1f1;fill-opacity:1;fill-rule:evenodd;stroke:none"
         d="m 9511.97,7554.92 c -34.89,8.64 -73.84,-27.47 -87,-80.64 -13.16,-53.17 4.45,-103.27 39.35,-111.91 34.89,-8.64 73.84,27.47 87,80.64 13.16,53.16 -4.45,103.27 -39.35,111.91" /><path
         id="path102"
         style="fill:#e4e4e4;fill-opacity:1;fill-rule:evenodd;stroke:none"
         d="m 9768.5,7333.64 79.15,9.35 72.26,-11.27 -57.77,-20.86 -93.64,22.78" /><path
         id="path104"
         style="fill:#39404a;fill-opacity:1;fill-rule:evenodd;stroke:none"
         d="m 9816.1,7534.51 -85.67,9.03 c 23.14,-37.95 62.35,-21.43 85.67,-9.03" /><path
         id="path106"
         style="fill:#e4e4e4;fill-opacity:1;fill-rule:evenodd;stroke:none"
         d="m 9859.74,7044.87 -40.63,5.61 26.88,63.32 -9.49,44 -0.73,-35.13 -46.81,-66.74 -130.32,19.99 -228.59,156.66 c 0,0 221.66,-217.93 228.53,-221.57 6.87,-3.64 201.16,33.86 201.16,33.86" /><path
         id="path108"
         style="fill:#e4e4e4;fill-opacity:1;fill-rule:evenodd;stroke:none"
         d="m 9863.37,7266.97 -2.24,15.58 -12.59,-2.51 -5.56,0.43 -14.98,7.76 -55.12,-26.79 63.31,9.86 27.18,-4.33" /><path
         id="path110"
         style="fill:#e4e4e4;fill-opacity:1;fill-rule:evenodd;stroke:none"
         d="m 9813.07,7264.72 39.86,-5.55 9.73,1.85 -4.86,-13.76 -7.35,3.68 -14.56,-5.31 -22.82,19.09" /><path
         id="path112"
         style="fill:#39404a;fill-opacity:1;fill-rule:evenodd;stroke:none"
         d="m 9014.99,2067.41 47.3,-64.47 -21.23,-49.36 c 77.73,-93.25 86.13,-124.88 48.64,-158.71 l -163.17,221.66 88.46,50.88" /><path
         id="path114"
         style="fill:#39404a;fill-opacity:1;fill-rule:evenodd;stroke:none"
         d="m 9884.24,4509.96 -265.68,-996.84 -536.31,-1510.3 -170.01,10.05 146.86,1167.23 172.17,250.02 195.13,1318.68 457.84,-238.84" /></g></g></svg>