<?xml version="1.0" standalone="no"?>
<!DOCTYPE svg PUBLIC "-//W3C//DTD SVG 20010904//EN"
 "http://www.w3.org/TR/2001/REC-SVG-20010904/DTD/svg10.dtd">
<svg version="1.0" xmlns="http://www.w3.org/2000/svg"
 width="5241.000000pt" height="4769.000000pt" viewBox="0 0 5241.000000 4769.000000"
 preserveAspectRatio="xMidYMid meet">

<g transform="translate(0.000000,4769.000000) scale(0.100000,-0.100000)"
fill="#000000" stroke="none">
<path d="M39400 32521 l-385 -56 -65 -54 c-36 -29 -96 -82 -135 -116 -38 -35
-152 -131 -252 -214 -100 -83 -185 -156 -189 -162 -3 -6 -10 -81 -15 -167 -10
-195 -15 -292 -34 -602 -8 -135 -19 -339 -25 -455 -6 -115 -13 -225 -14 -243
-3 -26 0 -32 13 -28 64 19 279 70 336 80 l70 12 7 85 c10 132 62 272 129 344
188 204 420 87 423 -212 1 -40 3 -73 5 -73 19 0 321 84 321 90 0 4 -25 60 -55
126 -30 65 -55 124 -55 131 0 6 -45 104 -100 218 l-101 206 87 180 87 179 416
0 416 0 177 -125 c97 -69 179 -125 182 -125 4 0 94 142 140 222 l27 47 -22 43
c-12 24 -29 54 -39 68 -9 14 -57 102 -105 195 -49 94 -93 178 -99 187 -6 10
-82 44 -176 79 -91 34 -248 92 -350 130 -102 38 -196 68 -210 67 -14 0 -198
-26 -410 -57z"/>
<path d="M39992 30978 c2 -6 21 -26 42 -42 35 -29 43 -31 114 -30 57 0 90 6
126 22 27 13 47 24 45 27 -5 4 -275 35 -309 35 -12 0 -20 -5 -18 -12z"/>
<path d="M37780 29244 c-30 -8 -71 -19 -90 -24 -19 -6 -87 -24 -150 -41 -63
-17 -135 -37 -160 -46 -25 -8 -76 -21 -115 -28 -79 -15 -201 -48 -525 -140
-124 -35 -333 -94 -465 -130 -132 -36 -276 -77 -320 -90 -44 -13 -123 -35
-175 -49 -127 -35 -429 -118 -740 -206 -140 -39 -293 -79 -340 -89 -69 -15
-508 -134 -762 -207 l-56 -17 -76 -216 c-41 -119 -95 -272 -120 -341 -24 -69
-88 -249 -141 -400 -53 -151 -125 -358 -161 -460 -36 -102 -85 -243 -110 -315
-24 -71 -48 -139 -54 -150 -5 -11 -14 -40 -20 -65 -15 -62 -122 -374 -254
-740 -24 -69 -81 -231 -127 -360 -45 -129 -87 -251 -95 -270 -30 -81 -149
-426 -191 -555 -52 -157 -96 -287 -153 -450 -21 -60 -57 -164 -80 -230 -22
-66 -45 -129 -50 -140 -4 -11 -26 -72 -48 -135 -22 -63 -79 -225 -127 -360
-168 -478 -236 -676 -254 -735 -11 -33 -26 -82 -34 -110 -8 -27 -24 -75 -36
-105 -20 -57 -21 -70 -66 -835 -8 -137 -19 -320 -25 -405 -5 -85 -17 -276 -25
-425 -8 -148 -19 -335 -25 -415 -5 -80 -17 -266 -25 -415 -8 -148 -20 -337
-25 -420 -6 -82 -15 -229 -20 -325 -31 -536 -57 -964 -65 -1080 -2 -41 -7
-118 -10 -170 -3 -52 -12 -207 -20 -345 -9 -137 -20 -324 -25 -415 -5 -91 -13
-208 -16 -261 l-7 -97 59 -6 c123 -12 803 -49 817 -43 15 6 36 84 112 432 14
66 33 149 41 185 8 36 20 88 26 115 6 28 17 72 24 99 8 27 14 64 14 82 0 18 9
73 21 121 11 48 24 106 28 128 19 89 53 246 77 345 26 110 44 194 89 400 9 41
25 113 36 160 35 148 47 203 64 280 21 96 43 194 55 245 5 22 16 74 25 115 9
41 27 120 40 175 53 233 61 267 104 470 12 55 33 147 47 205 23 99 44 194 64
285 5 22 15 69 24 105 8 36 20 101 27 145 9 69 25 141 79 370 5 22 21 94 35
160 52 239 73 329 115 510 6 22 26 112 45 200 37 166 48 193 149 340 61 91
260 409 278 447 21 43 120 202 189 303 26 39 126 196 221 350 96 154 197 314
225 355 28 41 58 91 67 110 28 58 140 233 152 237 7 2 16 -19 22 -54 6 -32 22
-112 37 -178 14 -66 43 -208 65 -315 22 -107 51 -249 65 -315 13 -66 36 -174
50 -240 30 -140 104 -502 115 -560 5 -22 27 -130 50 -240 99 -472 122 -585
135 -675 8 -52 31 -171 50 -265 20 -93 40 -194 45 -223 5 -30 12 -62 15 -72 6
-18 38 -173 116 -555 23 -110 45 -218 50 -240 11 -53 113 -548 199 -965 38
-184 80 -387 94 -450 53 -244 129 -628 137 -690 4 -36 22 -130 39 -210 17 -80
35 -167 40 -195 5 -27 20 -104 35 -170 14 -66 33 -151 41 -190 20 -101 105
-515 158 -768 25 -120 43 -223 41 -230 -2 -7 -16 -91 -30 -187 -15 -96 -33
-220 -41 -275 -9 -55 -19 -127 -24 -160 -5 -33 -20 -139 -35 -235 -39 -257
-51 -336 -80 -535 -66 -452 -66 -451 -111 -521 -21 -34 -46 -75 -55 -90 -29
-51 -175 -261 -284 -409 -49 -67 -140 -199 -268 -387 l-59 -87 -29 -218 c-16
-120 -34 -276 -40 -348 -6 -71 -19 -197 -30 -280 -11 -82 -28 -222 -39 -310
-11 -88 -24 -191 -29 -230 -6 -38 -12 -92 -16 -120 -3 -27 -10 -79 -15 -115
-9 -59 -36 -273 -60 -470 -5 -41 -16 -129 -25 -195 -8 -66 -25 -192 -35 -280
-11 -88 -24 -194 -30 -235 -5 -41 -17 -129 -25 -195 -9 -66 -20 -154 -25 -195
-33 -254 -41 -317 -55 -430 -8 -69 -20 -156 -25 -195 -6 -38 -19 -144 -30
-235 -12 -91 -27 -214 -35 -275 -43 -331 -55 -431 -55 -447 0 -14 8 -18 33
-18 30 0 40 -11 157 -167 69 -91 167 -222 219 -291 51 -69 105 -144 120 -168
37 -61 168 -239 187 -255 14 -11 20 -8 45 21 62 76 63 159 2 279 -37 74 -121
192 -188 266 -57 63 -57 61 -11 170 l43 100 41 3 c40 3 42 5 63 60 27 74 98
270 109 302 4 14 20 57 35 95 15 39 51 138 80 220 83 236 148 417 212 590 33
88 65 183 72 210 13 54 78 244 116 340 13 33 65 177 115 320 51 143 113 319
140 390 26 72 60 163 74 203 27 74 58 162 100 280 13 37 54 147 90 246 36 98
66 186 66 195 0 17 55 177 139 406 29 77 79 217 112 310 33 94 71 200 85 237
13 38 36 101 50 140 14 40 32 87 39 103 7 17 25 66 41 110 15 44 70 197 121
340 52 143 105 296 117 340 13 44 65 195 116 335 95 262 171 484 189 555 6 22
29 108 51 190 22 83 51 188 64 235 13 47 42 155 65 240 60 226 116 431 148
545 l29 100 74 -3 c41 -2 77 -5 79 -7 4 -5 -13 -141 -34 -275 -9 -52 -20 -126
-25 -165 -5 -38 -19 -128 -30 -199 -11 -71 -20 -150 -20 -177 0 -26 -4 -70 -9
-96 -6 -26 -17 -97 -26 -158 -9 -60 -23 -153 -31 -205 -7 -52 -19 -129 -25
-170 -5 -41 -16 -113 -24 -160 -7 -47 -19 -123 -26 -170 -7 -48 -21 -100 -33
-120 -30 -50 -263 -387 -301 -435 -31 -38 -141 -201 -314 -464 -51 -78 -81
-133 -81 -150 0 -15 -6 -72 -14 -127 -14 -96 -20 -150 -51 -399 -8 -66 -19
-151 -25 -190 -5 -38 -17 -126 -25 -195 -9 -69 -20 -159 -25 -200 -16 -120
-50 -385 -66 -510 -8 -63 -19 -149 -24 -190 -9 -72 -31 -248 -50 -395 -5 -38
-25 -196 -44 -350 -20 -154 -40 -311 -46 -350 -6 -38 -26 -198 -46 -355 -37
-293 -39 -311 -74 -590 -11 -91 -24 -199 -30 -240 -5 -41 -12 -111 -15 -155
-3 -44 -10 -111 -15 -150 -22 -156 -40 -308 -40 -330 0 -18 6 -24 27 -27 22
-2 44 -25 101 -98 99 -128 298 -394 482 -645 56 -77 109 -140 117 -140 8 0 28
25 45 55 25 47 29 63 24 110 -7 89 -58 196 -153 322 -47 62 -89 115 -92 118
-31 26 -30 37 13 136 l42 99 44 5 c42 5 44 6 62 60 11 30 30 91 43 135 12 44
41 130 63 190 23 61 95 263 162 450 67 187 132 367 145 400 13 33 35 93 49
132 14 40 37 103 50 140 37 102 152 425 190 533 19 52 37 109 41 125 6 27 110
323 199 565 19 52 58 160 86 240 74 208 92 259 149 410 27 74 68 189 91 255
23 66 67 188 97 270 30 83 64 179 74 215 16 57 161 470 249 710 18 47 43 115
56 153 33 93 65 181 119 332 265 734 299 835 360 1070 31 119 113 421 131 485
17 61 36 130 100 375 31 116 68 251 83 300 l27 90 101 -4 101 -3 36 110 c20
61 36 118 36 127 0 9 40 137 89 283 49 147 177 537 286 867 108 330 212 643
230 695 45 129 82 248 90 290 4 19 51 168 105 330 54 162 128 387 164 500 37
113 71 214 76 225 5 11 57 169 115 350 58 182 110 339 115 350 18 38 120 361
120 377 0 9 45 151 99 315 54 164 126 384 160 488 34 105 68 206 76 225 26 66
363 1105 370 1140 8 42 135 422 144 433 7 7 16 -11 70 -148 18 -44 36 -89 41
-100 4 -11 31 -83 60 -160 28 -77 58 -158 67 -180 8 -22 19 -49 23 -60 4 -11
13 -33 19 -50 7 -16 22 -56 33 -90 11 -33 24 -64 28 -70 4 -5 31 -73 59 -150
56 -150 76 -202 96 -250 15 -36 57 -162 76 -225 7 -25 23 -67 36 -94 21 -46
23 -63 23 -215 0 -91 6 -447 15 -791 16 -675 32 -1465 40 -1975 3 -176 10
-500 15 -720 5 -220 12 -546 15 -725 13 -763 23 -1252 28 -1256 5 -5 695 -106
815 -119 38 -4 62 -3 62 3 0 5 11 83 25 173 13 90 61 423 105 739 45 316 92
649 105 740 46 310 94 665 100 740 6 67 111 829 180 1300 14 96 46 317 70 490
25 173 47 331 50 350 3 19 35 244 71 500 l66 465 -26 185 c-25 177 -57 411
-91 660 -9 63 -20 142 -25 175 -6 33 -24 161 -40 285 -17 124 -46 335 -65 470
-40 282 -105 753 -141 1015 -13 99 -28 207 -34 240 -5 33 -12 96 -15 140 -3
44 -10 112 -15 150 -14 102 -178 1289 -200 1440 -5 39 -32 234 -60 435 -113
820 -161 1159 -171 1230 l-11 75 -86 34 c-48 19 -109 44 -137 56 -27 12 -61
25 -75 28 -30 7 -312 122 -1518 616 -95 39 -195 77 -221 85 -52 15 -290 110
-319 126 -9 6 -100 43 -202 84 -358 143 -446 179 -500 203 -30 14 -116 49
-190 79 l-135 54 -275 -53 -275 -53 -17 -190 c-9 -104 -37 -430 -63 -724 -49
-571 -35 -468 -210 -1535 -167 -1017 -197 -1200 -206 -1285 -6 -52 -52 -351
-104 -665 -51 -313 -130 -795 -175 -1070 -45 -275 -87 -531 -94 -570 l-14 -70
-1 80 c-1 44 19 1249 44 2679 l46 2598 45 56 45 55 -82 83 -83 84 -25 -23
c-14 -12 -28 -24 -31 -27 -3 -3 -31 -25 -63 -49 -32 -24 -60 -48 -63 -52 -3
-5 12 -33 34 -63 l38 -54 -7 -78 c-12 -116 -86 -839 -109 -1059 -39 -374 -99
-993 -109 -1130 -6 -77 -29 -315 -51 -530 -22 -214 -52 -500 -65 -635 -110
-1075 -216 -2094 -219 -2097 -1 -2 -6 63 -9 144 -4 82 -14 276 -22 433 -24
459 -52 1007 -90 1740 -32 621 -82 1592 -150 2910 -14 267 -32 611 -40 765 -9
154 -18 339 -22 411 l-6 132 -51 7 c-88 11 -145 45 -201 117 -20 26 -20 26
-75 12z m851 -8288 c34 -66 43 -76 54 -65 14 15 86 124 124 188 14 22 26 39
27 38 2 -2 -6 -57 -17 -122 -10 -66 -24 -160 -29 -210 -10 -86 -82 -543 -154
-970 -28 -170 -34 -193 -39 -155 -6 41 -78 1439 -77 1485 0 20 34 -37 111
-189z"/>
<path d="M32367 16097 c-91 -8 -107 -12 -103 -26 3 -9 13 -55 22 -103 l18 -87
45 -3 46 -3 7 -130 c3 -71 3 -133 0 -136 -4 -3 -149 -12 -322 -18 -173 -7
-378 -14 -455 -17 -77 -3 -210 -9 -295 -14 -85 -4 -157 -6 -159 -4 -4 4 50
155 76 211 10 21 24 34 42 38 28 6 28 8 34 93 3 48 8 94 11 102 5 13 -7 14
-88 10 -52 -3 -97 -8 -99 -10 -12 -13 -35 -70 -47 -115 -8 -27 -40 -115 -71
-195 l-58 -145 -43 -7 c-24 -3 -99 -7 -168 -7 -69 -1 -213 -5 -320 -11 -242
-13 -593 -27 -985 -41 -203 -7 -304 -14 -311 -22 -7 -7 -18 -127 -28 -307 -9
-162 -21 -367 -27 -455 -5 -88 -20 -347 -34 -575 -14 -228 -30 -505 -35 -615
-6 -110 -17 -342 -25 -515 -9 -173 -18 -354 -22 -401 l-6 -87 29 -6 c16 -3
187 -26 379 -50 768 -98 994 -127 1095 -141 58 -8 161 -19 230 -25 117 -11
214 -22 710 -86 107 -14 229 -29 270 -34 41 -5 163 -21 270 -35 621 -82 1200
-156 1260 -162 47 -4 70 1 155 32 55 20 147 54 205 75 58 21 161 59 230 85 69
26 175 64 235 85 l110 39 7 73 c7 76 33 486 48 763 4 88 13 234 19 325 6 91
15 242 21 335 5 94 17 283 25 420 8 138 20 327 25 420 27 439 31 504 37 562
l6 63 -89 41 c-120 56 -264 124 -414 197 -69 33 -174 83 -235 112 l-110 52
-325 -12 c-179 -6 -382 -14 -452 -17 l-127 -6 -5 34 c-3 19 -10 127 -14 240
-5 113 -12 211 -16 217 -8 13 -23 13 -179 -1z"/>
</g>
</svg>
